<?xml version="1.0" encoding="UTF-8" standalone="no"?>
<!-- Created with Inkscape (http://www.inkscape.org/) -->

<svg
   version="1.1"
   id="svg1"
   width="450"
   height="450"
   viewBox="0 0 450 450"
   xml:space="preserve"
   xmlns="http://www.w3.org/2000/svg"
   xmlns:svg="http://www.w3.org/2000/svg"><defs
     id="defs1" /><g
     id="g1"><path
       style="fill:#010101;stroke:none"
       d="M 47.003857,40.742279 C 40.675011,43.194153 40.009857,49.103455 40,55 v 36 c 0,4.915894 -0.903889,10.81042 2.43364,14.8912 3.756015,4.59247 9.210693,4.10846 14.56636,4.1088 13.046608,8.2e-4 33.830444,3.98599 45.99537,-0.74228 6.1495,-2.3902 6.97567,-8.48962 7.00386,-14.25772 C 110.05788,83.000641 110,70.999542 110,59 110,54.084229 110.90384,48.189514 107.56636,44.108795 103.81038,39.516388 98.355637,40.000336 93,40 79.940079,39.999176 59.186504,36.022552 47.003857,40.742279 m 299.999993,0 C 340.67499,43.194183 340.00986,49.103485 340,55 v 36 c 0,4.915894 -0.90387,10.81042 2.43365,14.8912 3.75602,4.59244 9.21067,4.10846 14.56635,4.1088 13.05988,8.2e-4 33.81357,3.97745 45.99615,-0.74228 C 409.32498,106.80585 409.99014,100.89658 410,95 V 59 c 0,-4.915802 0.90381,-10.810486 -2.43365,-14.891205 C 403.81033,39.516357 398.35568,40.000336 393,40 379.94009,39.999176 359.18646,36.022552 347.00385,40.742279 M 133.3179,42.086426 c -3.75802,2.169678 -0.39392,7.996887 3.3642,5.827148 3.75801,-2.169678 0.39392,-7.996887 -3.3642,-5.827148 m 30,0 c -3.75804,2.169708 -0.3939,7.996887 3.3642,5.827148 3.75802,-2.169678 0.3939,-7.996887 -3.3642,-5.827148 m 20,0 c -3.75804,2.169678 -0.3939,7.996887 3.3642,5.827148 3.75801,-2.169678 0.39392,-7.996887 -3.3642,-5.827148 m 20,0 c -3.75802,2.169678 -0.3939,7.996887 3.3642,5.827148 3.75801,-2.169678 0.39393,-7.996887 -3.3642,-5.827148 m 20,0 c -3.75802,2.169678 -0.39392,7.996887 3.3642,5.827148 3.75802,-2.169678 0.3939,-7.996887 -3.3642,-5.827148 m 20,0 c -3.75802,2.169678 -0.39392,7.996887 3.3642,5.827148 3.75801,-2.169678 0.39393,-7.996887 -3.3642,-5.827148 m 20,0 c -3.75806,2.169678 -0.39392,7.996887 3.3642,5.827148 3.75809,-2.169708 0.39389,-7.996856 -3.3642,-5.827148 m 20,0 c -3.75802,2.169678 -0.39392,7.996887 3.3642,5.827148 3.75812,-2.169739 0.39386,-7.996856 -3.3642,-5.827148 m 30,0 c -3.75799,2.169678 -0.39398,7.996918 3.3642,5.827148 3.75809,-2.169708 0.39389,-7.996856 -3.3642,-5.827148 m 10,0 c -3.75802,2.169678 -0.39392,7.996887 3.3642,5.827148 3.75809,-2.169708 0.39392,-7.996887 -3.3642,-5.827148 M 58.000771,50.433655 c 8.666633,-2.383179 34.906433,-3.50589 40.256942,4.610321 C 100.5488,58.519348 99.999748,63.040741 100,67 c 6e-4,9.251068 3.9241,29.283173 -8.000771,32.566345 C 83.33461,101.9519 57.091503,103.07028 51.742283,94.956024 49.451199,91.480652 50.000256,86.959259 50,83 49.999397,73.642426 45.980705,53.738983 58.000771,50.433655 m 299.999989,0 c 8.66663,-2.383179 34.90644,-3.50589 40.25696,4.610321 C 400.5488,58.519318 399.99976,63.040741 400,67 c 5.8e-4,9.251099 3.92413,29.283142 -8.00076,32.566345 -8.66465,2.385555 -34.90775,3.503935 -40.25696,-4.610321 C 349.4512,91.480682 350.00024,86.959259 350,83 c -5.8e-4,-9.357544 -4.01929,-29.261017 8.00076,-32.566345 M 133.3179,52.086426 c -3.75801,2.169678 -0.39393,7.996887 3.3642,5.827148 3.75802,-2.169678 0.39392,-7.996887 -3.3642,-5.827148 m 10,0 c -3.75801,2.169678 -0.39395,7.996887 3.3642,5.827148 3.75802,-2.169678 0.3939,-7.996887 -3.3642,-5.827148 m 40,0 c -3.75802,2.169678 -0.39392,7.996887 3.3642,5.827148 3.75802,-2.169678 0.39392,-7.996887 -3.3642,-5.827148 m 10,0 c -3.75799,2.169678 -0.39395,7.996918 3.3642,5.827148 3.75801,-2.169678 0.39392,-7.996887 -3.3642,-5.827148 m 10,0 c -3.75802,2.169678 -0.39392,7.996887 3.3642,5.827148 3.75802,-2.169678 0.39393,-7.996887 -3.3642,-5.827148 m 30,0 c -3.75799,2.169678 -0.39395,7.996887 3.3642,5.827148 3.75804,-2.169678 0.3939,-7.996887 -3.3642,-5.827148 m 20,0 c -3.75801,2.169678 -0.39393,7.996887 3.3642,5.827148 3.75809,-2.169708 0.39392,-7.996887 -3.3642,-5.827148 m 10,0 c -3.75802,2.169678 -0.39392,7.996887 3.3642,5.827148 3.75809,-2.169708 0.39389,-7.996856 -3.3642,-5.827148 m 30,0 c -3.75802,2.169678 -0.39392,7.996887 3.3642,5.827148 3.75809,-2.169708 0.39395,-7.996887 -3.3642,-5.827148 M 67.00386,60.742279 c -8.280105,3.207825 -9.819194,18.731049 -4.57022,25.148926 4.099372,5.012268 14.760871,5.614166 20.5625,3.366516 8.280097,-3.207825 9.819198,-18.731049 4.57022,-25.148926 -4.099372,-5.012268 -14.760871,-5.614166 -20.5625,-3.366516 m 299.99999,0 c -8.28013,3.207855 -9.81916,18.731079 -4.5702,25.148926 4.09583,5.007965 14.76459,5.619751 20.56171,3.366516 8.21329,-3.192352 9.76093,-18.803223 4.57099,-25.148926 -4.0994,-5.012298 -14.76084,-5.614166 -20.5625,-3.366516 M 123.3179,62.086426 c -3.75805,2.169678 -0.39392,7.996887 3.3642,5.827148 3.75804,-2.169708 0.39389,-7.996856 -3.3642,-5.827148 m 20,0 c -3.75802,2.169678 -0.39392,7.996887 3.3642,5.827148 3.75802,-2.169678 0.3939,-7.996887 -3.3642,-5.827148 m 10,0 c -3.75804,2.169708 -0.3939,7.996887 3.3642,5.827148 3.75802,-2.169678 0.39392,-7.996887 -3.3642,-5.827148 m 10,0 c -3.75804,2.169708 -0.39389,7.996887 3.3642,5.827148 3.75802,-2.169678 0.39389,-7.996856 -3.3642,-5.827148 m 60,0 c -3.75802,2.169678 -0.39392,7.996887 3.3642,5.827148 3.75804,-2.169708 0.39389,-7.996856 -3.3642,-5.827148 m 10,0 c -3.75801,2.169678 -0.39392,7.996887 3.3642,5.827148 3.75802,-2.169678 0.39389,-7.996856 -3.3642,-5.827148 m 10,0 c -3.75802,2.169678 -0.3939,7.996887 3.3642,5.827148 3.75802,-2.169678 0.39392,-7.996887 -3.3642,-5.827148 m 10,0 c -3.75801,2.169678 -0.39393,7.996887 3.3642,5.827148 3.75809,-2.169708 0.39389,-7.996887 -3.3642,-5.827148 m 10,0 c -3.75809,2.169708 -0.39389,7.996856 3.3642,5.827148 3.75806,-2.169708 0.39389,-7.996856 -3.3642,-5.827148 m 20,0 c -3.75806,2.169678 -0.39389,7.996856 3.3642,5.827148 3.75809,-2.169708 0.39389,-7.996856 -3.3642,-5.827148 m 20,0 c -3.75802,2.169678 -0.39389,7.996856 3.3642,5.827148 3.75809,-2.169708 0.39389,-7.996856 -3.3642,-5.827148 m 20,0 c -3.75806,2.169708 -0.39389,7.996856 3.3642,5.827148 3.75809,-2.169708 0.39392,-7.996887 -3.3642,-5.827148 m -200,10 c -3.75805,2.169678 -0.39392,7.996887 3.3642,5.827148 3.75802,-2.169678 0.39392,-7.996887 -3.3642,-5.827148 m 10,0 c -3.75799,2.169678 -0.39393,7.996887 3.3642,5.827148 3.75802,-2.169678 0.3939,-7.996887 -3.3642,-5.827148 m 20,0 c -3.75801,2.169678 -0.39393,7.996887 3.3642,5.827148 3.75802,-2.169678 0.39392,-7.996887 -3.3642,-5.827148 m 20,0 c -3.75799,2.169678 -0.39395,7.996918 3.3642,5.827148 3.75802,-2.169678 0.3939,-7.996887 -3.3642,-5.827148 m 10,0 c -3.75799,2.169678 -0.39393,7.996887 3.3642,5.827148 3.75802,-2.169678 0.3939,-7.996887 -3.3642,-5.827148 m 50,0 c -3.75798,2.169647 -0.39395,7.996918 3.3642,5.827148 3.75804,-2.169678 0.39389,-7.996856 -3.3642,-5.827148 m 50,0 c -3.75806,2.169678 -0.39389,7.996856 3.3642,5.827148 3.75812,-2.169739 0.39389,-7.996856 -3.3642,-5.827148 m 10,0 c -3.75806,2.169708 -0.39389,7.996856 3.3642,5.827148 3.75809,-2.169708 0.39392,-7.996887 -3.3642,-5.827148 m 10,0 c -3.75806,2.169678 -0.39389,7.996856 3.3642,5.827148 3.75809,-2.169708 0.39389,-7.996856 -3.3642,-5.827148 m 20,0 c -3.75806,2.169708 -0.39389,7.996856 3.3642,5.827148 3.75809,-2.169708 0.39392,-7.996887 -3.3642,-5.827148 m -200,10 c -3.75803,2.169678 -0.39392,7.996887 3.3642,5.827148 3.75801,-2.169678 0.39392,-7.996887 -3.3642,-5.827148 m 10,0 c -3.75802,2.169678 -0.39392,7.996887 3.3642,5.827148 3.75801,-2.169678 0.39393,-7.996887 -3.3642,-5.827148 m 20,0 c -3.75802,2.169678 -0.3939,7.996887 3.3642,5.827148 3.75801,-2.169678 0.39393,-7.996887 -3.3642,-5.827148 m 10,0 c -3.75804,2.169678 -0.3939,7.996887 3.3642,5.827148 3.75802,-2.169678 0.39392,-7.996887 -3.3642,-5.827148 m 20,0 c -3.75802,2.169678 -0.3939,7.996887 3.3642,5.827148 3.75801,-2.169678 0.39392,-7.996887 -3.3642,-5.827148 m 10,0 c -3.75801,2.169678 -0.39393,7.996887 3.3642,5.827148 3.75801,-2.169678 0.39392,-7.996887 -3.3642,-5.827148 m 40,0 c -3.75799,2.169678 -0.39393,7.996887 3.3642,5.827148 3.75802,-2.169678 0.39392,-7.996887 -3.3642,-5.827148 m 10,0 c -3.75802,2.169678 -0.39392,7.996887 3.3642,5.827148 3.75802,-2.169678 0.39393,-7.996887 -3.3642,-5.827148 m 30,0 c -3.75806,2.169678 -0.39392,7.996887 3.3642,5.827148 3.75806,-2.169708 0.39392,-7.996887 -3.3642,-5.827148 m 50,0 c -3.75806,2.169678 -0.39392,7.996887 3.3642,5.827148 3.75809,-2.169708 0.39392,-7.996887 -3.3642,-5.827148 m -200,10 c -3.75803,2.169678 -0.39393,7.996884 3.3642,5.827148 3.75804,-2.169678 0.3939,-7.996856 -3.3642,-5.827148 m 10,0 c -3.75802,2.169678 -0.39392,7.996884 3.3642,5.827148 3.75802,-2.169678 0.39392,-7.996887 -3.3642,-5.827148 m 10,0 c -3.75801,2.169678 -0.39393,7.996884 3.3642,5.827148 3.75802,-2.169678 0.39392,-7.996887 -3.3642,-5.827148 m 10,0 c -3.75802,2.169678 -0.3939,7.996884 3.3642,5.827148 3.75802,-2.169678 0.39393,-7.996887 -3.3642,-5.827148 m 30,0 c -3.75802,2.169678 -0.3939,7.996884 3.3642,5.827148 3.75802,-2.169678 0.39392,-7.996887 -3.3642,-5.827148 m 10,0 c -3.75801,2.169678 -0.39393,7.996884 3.3642,5.827148 3.75801,-2.169678 0.39392,-7.996887 -3.3642,-5.827148 m 30,0 c -3.75801,2.169678 -0.39392,7.996884 3.3642,5.827148 3.75804,-2.169708 0.3939,-7.996887 -3.3642,-5.827148 m 40,0 c -3.75806,2.169708 -0.39392,7.996884 3.3642,5.827148 3.75806,-2.169708 0.39392,-7.996887 -3.3642,-5.827148 m 50,0 c -3.75799,2.169678 -0.39395,7.996914 3.3642,5.827148 3.75806,-2.169708 0.39389,-7.996856 -3.3642,-5.827148 m -190,10.000004 c -3.75803,2.16967 -0.39391,7.99688 3.3642,5.82714 3.75802,-2.16967 0.39392,-7.996883 -3.3642,-5.82714 m 20,0 c -3.75801,2.16967 -0.39393,7.99688 3.3642,5.82714 3.75804,-2.16967 0.39392,-7.996883 -3.3642,-5.82714 m 20,0 c -3.75802,2.16967 -0.3939,7.99688 3.3642,5.82714 3.75804,-2.16967 0.3939,-7.996883 -3.3642,-5.82714 m 20,0 c -3.75802,2.16967 -0.3939,7.99688 3.3642,5.82714 3.75802,-2.16967 0.39392,-7.996883 -3.3642,-5.82714 m 20,0 c -3.75802,2.16967 -0.3939,7.99688 3.3642,5.82714 3.75802,-2.16967 0.39393,-7.996883 -3.3642,-5.82714 m 20,0 c -3.75801,2.16967 -0.39392,7.99688 3.3642,5.82714 3.75806,-2.1697 0.3939,-7.996883 -3.3642,-5.82714 m 20,0 c -3.75802,2.16967 -0.39392,7.99688 3.3642,5.82714 3.75804,-2.16967 0.39393,-7.996883 -3.3642,-5.82714 m 20,0 c -3.75809,2.1697 -0.39389,7.99685 3.3642,5.82714 3.75809,-2.1697 0.39389,-7.996852 -3.3642,-5.82714 m 20,0 c -3.75806,2.16967 -0.39389,7.99685 3.3642,5.82714 3.75809,-2.1697 0.39386,-7.996852 -3.3642,-5.82714 m 20,0 c -3.75806,2.16967 -0.39389,7.99685 3.3642,5.82714 3.75809,-2.1697 0.39389,-7.996852 -3.3642,-5.82714 m 20,0 c -3.75806,2.1697 -0.39389,7.99685 3.3642,5.82714 3.75809,-2.1697 0.39392,-7.996883 -3.3642,-5.82714 m -200,10 c -3.75805,2.1697 -0.3939,7.99688 3.3642,5.82714 3.75802,-2.16967 0.39393,-7.99688 -3.3642,-5.82714 m 10,0 c -3.75802,2.16967 -0.39392,7.99688 3.3642,5.82714 3.75802,-2.16967 0.39392,-7.99688 -3.3642,-5.82714 m 20,0 c -3.75802,2.16967 -0.3939,7.99688 3.3642,5.82714 3.75802,-2.16967 0.39392,-7.99688 -3.3642,-5.82714 m 10,0 c -3.75802,2.16967 -0.3939,7.99688 3.3642,5.82714 3.75802,-2.16967 0.3939,-7.99688 -3.3642,-5.82714 m 20,0 c -3.75802,2.16967 -0.3939,7.99688 3.3642,5.82714 3.75802,-2.16967 0.39392,-7.99688 -3.3642,-5.82714 m 20,0 c -3.75802,2.16967 -0.3939,7.99688 3.3642,5.82714 3.75801,-2.16967 0.39393,-7.99688 -3.3642,-5.82714 m 30,0 c -3.75799,2.16967 -0.39393,7.99688 3.3642,5.82714 3.75804,-2.16967 0.3939,-7.99688 -3.3642,-5.82714 m 40,0 c -3.75806,2.16967 -0.39389,7.99685 3.3642,5.82714 3.75806,-2.1697 0.39392,-7.99688 -3.3642,-5.82714 m 30,0 c -3.75802,2.16967 -0.39392,7.99688 3.3642,5.82714 3.75809,-2.1697 0.39389,-7.99685 -3.3642,-5.82714 m 10,0 c -3.75802,2.16967 -0.39395,7.99688 3.3642,5.82714 3.75809,-2.1697 0.39389,-7.99685 -3.3642,-5.82714 m 10,0 c -3.75806,2.16967 -0.39389,7.99685 3.3642,5.82714 3.75809,-2.1697 0.39392,-7.99688 -3.3642,-5.82714 m -279.999998,10 c -3.758027,2.16967 -0.393925,7.99688 3.364196,5.82714 3.758072,-2.1697 0.393891,-7.99685 -3.364196,-5.82714 m 20,0 c -3.758027,2.16967 -0.393921,7.99688 3.364196,5.82714 3.758042,-2.16967 0.393929,-7.99688 -3.364196,-5.82714 m 10,0 c -3.758042,2.16967 -0.393929,7.99688 3.364196,5.82714 3.758042,-2.16967 0.393921,-7.99688 -3.364196,-5.82714 m 10,0 c -3.758042,2.16967 -0.393929,7.99688 3.364196,5.82714 3.758042,-2.16967 0.393921,-7.99688 -3.364196,-5.82714 m 10,0 c -3.758042,2.16967 -0.393921,7.99688 3.364196,5.82714 3.758042,-2.16967 0.393921,-7.99688 -3.364196,-5.82714 m 9.999998,0 c -3.75804,2.16967 -0.39392,7.99688 3.3642,5.82714 3.75804,-2.16967 0.39393,-7.99688 -3.3642,-5.82714 m 30,0 c -3.75804,2.16967 -0.3939,7.99688 3.3642,5.82714 3.75801,-2.16967 0.39393,-7.99688 -3.3642,-5.82714 m 10,0 c -3.75802,2.16967 -0.3939,7.99688 3.3642,5.82714 3.75802,-2.16967 0.39392,-7.99688 -3.3642,-5.82714 m 20,0 c -3.75804,2.1697 -0.39389,7.99685 3.3642,5.82714 3.75802,-2.16967 0.3939,-7.99688 -3.3642,-5.82714 m 20,0 c -3.75804,2.1697 -0.39389,7.99685 3.3642,5.82714 3.75801,-2.16967 0.39392,-7.99688 -3.3642,-5.82714 m 40,0 c -3.75802,2.16967 -0.3939,7.99688 3.3642,5.82714 3.75802,-2.16967 0.39392,-7.99688 -3.3642,-5.82714 m 20,0 c -3.75804,2.16967 -0.3939,7.99688 3.3642,5.82714 3.75802,-2.16967 0.39393,-7.99688 -3.3642,-5.82714 m 10,0 c -3.75802,2.16967 -0.3939,7.99688 3.3642,5.82714 3.75809,-2.1697 0.39389,-7.99688 -3.3642,-5.82714 m 10,0 c -3.75806,2.1697 -0.39392,7.99688 3.3642,5.82714 3.75806,-2.1697 0.39389,-7.99685 -3.3642,-5.82714 m 10,0 c -3.75802,2.16967 -0.39392,7.99688 3.3642,5.82714 3.75806,-2.1697 0.39392,-7.99688 -3.3642,-5.82714 m 10,0 c -3.75802,2.16967 -0.39392,7.99688 3.3642,5.82714 3.75809,-2.1697 0.39389,-7.99685 -3.3642,-5.82714 m 40,0 c -3.75802,2.16967 -0.39389,7.99685 3.3642,5.82714 3.75809,-2.1697 0.39392,-7.99688 -3.3642,-5.82714 m 20,0 c -3.75802,2.16967 -0.39392,7.99688 3.3642,5.82714 3.75809,-2.1697 0.39389,-7.99685 -3.3642,-5.82714 m 10,0 c -3.75799,2.16967 -0.39395,7.99688 3.3642,5.82714 3.75809,-2.1697 0.39389,-7.99685 -3.3642,-5.82714 m 10,0 c -3.75802,2.16967 -0.39395,7.99688 3.3642,5.82714 3.75812,-2.1697 0.39389,-7.99685 -3.3642,-5.82714 m 10,0 c -3.75802,2.16967 -0.39389,7.99685 3.3642,5.82714 3.75812,-2.16973 0.39389,-7.99685 -3.3642,-5.82714 m 10,0 c -3.75802,2.16967 -0.39389,7.99685 3.3642,5.82714 3.75809,-2.1697 0.39389,-7.99685 -3.3642,-5.82714 m -339.999998,10 c -3.758011,2.16967 -0.39394,7.99688 3.364196,5.82714 3.758065,-2.1697 0.393929,-7.99688 -3.364196,-5.82714 m 20,0 c -3.758011,2.16967 -0.393937,7.99688 3.364196,5.82714 3.758034,-2.16967 0.393944,-7.99688 -3.364196,-5.82714 m 10,0 c -3.758042,2.16967 -0.393929,7.99688 3.364196,5.82714 3.758034,-2.16967 0.393944,-7.99688 -3.364196,-5.82714 m 20,0 c -3.758042,2.16967 -0.393921,7.99688 3.364196,5.82714 3.758032,-2.16967 0.393944,-7.99688 -3.364196,-5.82714 m 49.999998,0 c -3.75802,2.16967 -0.39392,7.99688 3.3642,5.82714 3.75802,-2.16967 0.3939,-7.99688 -3.3642,-5.82714 m 10,0 c -3.75804,2.1697 -0.39389,7.99685 3.3642,5.82714 3.75802,-2.16967 0.39392,-7.99688 -3.3642,-5.82714 m 20,0 c -3.75802,2.16967 -0.39392,7.99688 3.3642,5.82714 3.75802,-2.16967 0.39392,-7.99688 -3.3642,-5.82714 m 20,0 c -3.75802,2.16967 -0.39392,7.99688 3.3642,5.82714 3.75801,-2.16967 0.39392,-7.99688 -3.3642,-5.82714 m 10,0 c -3.75804,2.16967 -0.39389,7.99685 3.3642,5.82714 3.75802,-2.16967 0.39393,-7.99688 -3.3642,-5.82714 m 100,0 c -3.75806,2.16967 -0.39389,7.99685 3.3642,5.82714 3.75806,-2.1697 0.39392,-7.99688 -3.3642,-5.82714 m 10,0 c -3.75802,2.16967 -0.39395,7.99688 3.3642,5.82714 3.75806,-2.1697 0.39389,-7.99685 -3.3642,-5.82714 m 20,0 c -3.75806,2.1697 -0.39392,7.99688 3.3642,5.82714 3.75806,-2.1697 0.39392,-7.99688 -3.3642,-5.82714 m 10,0 c -3.75802,2.16967 -0.39392,7.99685 3.3642,5.82714 3.75809,-2.1697 0.39389,-7.99685 -3.3642,-5.82714 m 30,0 c -3.75806,2.1697 -0.39389,7.99685 3.3642,5.82714 3.75812,-2.16973 0.39389,-7.99685 -3.3642,-5.82714 m 10,0 c -3.75806,2.16967 -0.39389,7.99685 3.3642,5.82714 3.75809,-2.1697 0.39392,-7.99685 -3.3642,-5.82714 m 10,0 c -3.75806,2.1697 -0.39392,7.99685 3.3642,5.82714 3.75809,-2.1697 0.39389,-7.99685 -3.3642,-5.82714 m -349.999998,10 c -3.75803,2.16967 -0.393925,7.99688 3.364196,5.82714 3.758065,-2.1697 0.393914,-7.99688 -3.364196,-5.82714 m 40,0 c -3.758049,2.16967 -0.393921,7.99688 3.364196,5.82714 3.758034,-2.16967 0.393937,-7.99688 -3.364196,-5.82714 m 19.999998,0 c -3.758047,2.16967 -0.39391,7.99688 3.3642,5.82714 3.75802,-2.16967 0.39393,-7.99688 -3.3642,-5.82714 m 20,0 c -3.75805,2.1697 -0.3939,7.99688 3.3642,5.82714 3.75801,-2.16967 0.39393,-7.99688 -3.3642,-5.82714 m 10,0 c -3.75802,2.16967 -0.39392,7.99688 3.3642,5.82714 3.75802,-2.16967 0.39392,-7.99688 -3.3642,-5.82714 m 10,0 c -3.75801,2.16967 -0.39393,7.99688 3.3642,5.82714 3.75802,-2.16967 0.39392,-7.99688 -3.3642,-5.82714 m 20,0 c -3.75802,2.16967 -0.3939,7.99688 3.3642,5.82714 3.75804,-2.16967 0.3939,-7.99688 -3.3642,-5.82714 m 10,0 c -3.75801,2.16967 -0.39392,7.99688 3.3642,5.82714 3.75802,-2.16967 0.39392,-7.99688 -3.3642,-5.82714 m 10,0 c -3.75802,2.16967 -0.3939,7.99688 3.3642,5.82714 3.75802,-2.16967 0.39392,-7.99688 -3.3642,-5.82714 m 30,0 c -3.75801,2.16967 -0.39392,7.99688 3.3642,5.82714 3.75802,-2.16967 0.39392,-7.99688 -3.3642,-5.82714 m 10,0 c -3.75801,2.16967 -0.39392,7.99688 3.3642,5.82714 3.75804,-2.1697 0.3939,-7.99688 -3.3642,-5.82714 m 20,0 c -3.75802,2.16967 -0.39392,7.99688 3.3642,5.82714 3.75802,-2.16967 0.39393,-7.99688 -3.3642,-5.82714 m 20,0 c -3.75806,2.1697 -0.39389,7.99685 3.3642,5.82714 3.75809,-2.1697 0.39389,-7.99685 -3.3642,-5.82714 m 10,0 c -3.75806,2.1697 -0.39389,7.99685 3.3642,5.82714 3.75806,-2.1697 0.39392,-7.99688 -3.3642,-5.82714 m 10,0 c -3.75802,2.16967 -0.39392,7.99688 3.3642,5.82714 3.75809,-2.1697 0.39389,-7.99685 -3.3642,-5.82714 m 10,0 c -3.75806,2.16967 -0.39392,7.99688 3.3642,5.82714 3.75809,-2.1697 0.39392,-7.99688 -3.3642,-5.82714 m 20,0 c -3.75802,2.16967 -0.39395,7.99688 3.3642,5.82714 3.75809,-2.1697 0.39389,-7.99685 -3.3642,-5.82714 m 10,0 c -3.75806,2.1697 -0.39389,7.99685 3.3642,5.82714 3.75809,-2.1697 0.39392,-7.99688 -3.3642,-5.82714 m 10,0 c -3.75806,2.16967 -0.39392,7.99688 3.3642,5.82714 3.75809,-2.1697 0.39392,-7.99688 -3.3642,-5.82714 m 20,0 c -3.75802,2.16967 -0.39395,7.99688 3.3642,5.82714 3.75812,-2.16973 0.39389,-7.99685 -3.3642,-5.82714 m 20,0 c -3.75806,2.16967 -0.39389,7.99685 3.3642,5.82714 3.75812,-2.16973 0.39389,-7.99685 -3.3642,-5.82714 m 20,0 c -3.75806,2.16967 -0.39392,7.99688 3.3642,5.82714 3.75809,-2.1697 0.39389,-7.99685 -3.3642,-5.82714 m 10,0 c -3.75802,2.16967 -0.39392,7.99688 3.3642,5.82714 3.75809,-2.1697 0.39389,-7.99685 -3.3642,-5.82714 m -349.999998,10 c -3.758015,2.16967 -0.39394,7.99688 3.364196,5.82714 3.758065,-2.1697 0.39391,-7.99688 -3.364196,-5.82714 m 40,0 c -3.758034,2.16967 -0.393929,7.99688 3.364196,5.82714 3.758052,-2.16967 0.393914,-7.99688 -3.364196,-5.82714 m 29.999998,0 c -3.75803,2.16967 -0.39392,7.99688 3.3642,5.82714 3.75802,-2.16967 0.39392,-7.99688 -3.3642,-5.82714 m 40,0 c -3.75804,2.1697 -0.3939,7.99688 3.3642,5.82714 3.75804,-2.16967 0.3939,-7.99688 -3.3642,-5.82714 m 10,0 c -3.75802,2.16967 -0.39392,7.99688 3.3642,5.82714 3.75802,-2.16967 0.39392,-7.99688 -3.3642,-5.82714 m 30,0 c -3.75804,2.16967 -0.3939,7.99688 3.3642,5.82714 3.75802,-2.16967 0.39393,-7.99688 -3.3642,-5.82714 m 20,0 c -3.75802,2.16967 -0.39392,7.99688 3.3642,5.82714 3.75806,-2.1697 0.3939,-7.99688 -3.3642,-5.82714 m 30,0 c -3.75802,2.16967 -0.39392,7.99688 3.3642,5.82714 3.75809,-2.1697 0.39392,-7.99688 -3.3642,-5.82714 m 10,0 c -3.75809,2.1697 -0.39389,7.99685 3.3642,5.82714 3.75806,-2.1697 0.39389,-7.99685 -3.3642,-5.82714 m 10,0 c -3.75806,2.1697 -0.39389,7.99685 3.3642,5.82714 3.75806,-2.1697 0.39392,-7.99688 -3.3642,-5.82714 m 40,0 c -3.75802,2.16967 -0.39395,7.99688 3.3642,5.82714 3.75809,-2.1697 0.39389,-7.99685 -3.3642,-5.82714 m 20,0 c -3.75806,2.16967 -0.39392,7.99688 3.3642,5.82714 3.75806,-2.1697 0.39392,-7.99688 -3.3642,-5.82714 m 10,0 c -3.75802,2.16967 -0.39392,7.99688 3.3642,5.82714 3.75809,-2.1697 0.39389,-7.99685 -3.3642,-5.82714 m 60,0 c -3.75802,2.16967 -0.39392,7.99688 3.3642,5.82714 3.75809,-2.1697 0.39392,-7.99688 -3.3642,-5.82714 m -359.999998,10 c -3.758007,2.16967 -0.393933,7.99688 3.364196,5.82714 3.758065,-2.1697 0.393914,-7.99688 -3.364196,-5.82714 m 10,0 c -3.758007,2.16967 -0.393933,7.99688 3.364196,5.82714 3.758061,-2.1697 0.393917,-7.99688 -3.364196,-5.82714 m 20,0 c -3.758027,2.16967 -0.393937,7.99688 3.364196,5.82714 3.758042,-2.16967 0.393937,-7.99688 -3.364196,-5.82714 m 10,0 c -3.758034,2.16967 -0.393929,7.99688 3.364196,5.82714 3.758034,-2.16967 0.393937,-7.99688 -3.364196,-5.82714 m 10,0 c -3.758034,2.16967 -0.393929,7.99688 3.364196,5.82714 3.758042,-2.16967 0.393937,-7.99688 -3.364196,-5.82714 m 9.999998,0 c -3.758032,2.16967 -0.39393,7.99688 3.3642,5.82714 3.75803,-2.16967 0.39393,-7.99688 -3.3642,-5.82714 m 10,0 c -3.75803,2.16967 -0.39393,7.99688 3.3642,5.82714 3.75803,-2.16967 0.39393,-7.99688 -3.3642,-5.82714 m 20,0 c -3.75802,2.16967 -0.39392,7.99688 3.3642,5.82714 3.75802,-2.16967 0.3939,-7.99688 -3.3642,-5.82714 m 20,0 c -3.75802,2.16967 -0.39392,7.99688 3.3642,5.82714 3.75802,-2.16967 0.39392,-7.99688 -3.3642,-5.82714 m 30,0 c -3.75802,2.16967 -0.39392,7.99688 3.3642,5.82714 3.75802,-2.16967 0.3939,-7.99688 -3.3642,-5.82714 m 30,0 c -3.75801,2.16967 -0.39393,7.99688 3.3642,5.82714 3.75801,-2.16967 0.39392,-7.99688 -3.3642,-5.82714 m 30,0 c -3.75802,2.16967 -0.39393,7.99688 3.3642,5.82714 3.75802,-2.16967 0.39392,-7.99688 -3.3642,-5.82714 m 10,0 c -3.75801,2.16967 -0.39393,7.99688 3.3642,5.82714 3.75809,-2.1697 0.39392,-7.99688 -3.3642,-5.82714 m 10,0 c -3.75809,2.1697 -0.39389,7.99685 3.3642,5.82714 3.75806,-2.1697 0.39392,-7.99688 -3.3642,-5.82714 m 10,0 c -3.75806,2.1697 -0.39389,7.99685 3.3642,5.82714 3.75806,-2.16967 0.39395,-7.99688 -3.3642,-5.82714 m 10,0 c -3.75802,2.16967 -0.39389,7.99685 3.3642,5.82714 3.75809,-2.1697 0.39392,-7.99685 -3.3642,-5.82714 m 10,0 c -3.75806,2.16967 -0.39389,7.99685 3.3642,5.82714 3.75806,-2.1697 0.39395,-7.99688 -3.3642,-5.82714 m 10,0 c -3.75802,2.16967 -0.39389,7.99685 3.3642,5.82714 3.75806,-2.1697 0.39392,-7.99688 -3.3642,-5.82714 m 10,0 c -3.75802,2.16967 -0.39392,7.99688 3.3642,5.82714 3.75806,-2.1697 0.39392,-7.99688 -3.3642,-5.82714 m 20,0 c -3.75806,2.16967 -0.39389,7.99685 3.3642,5.82714 3.75806,-2.1697 0.39395,-7.99688 -3.3642,-5.82714 m 10,0 c -3.75802,2.16967 -0.39389,7.99685 3.3642,5.82714 3.75809,-2.1697 0.39392,-7.99685 -3.3642,-5.82714 m 20,0 c -3.75806,2.16967 -0.39392,7.99688 3.3642,5.82714 3.75809,-2.1697 0.39392,-7.99688 -3.3642,-5.82714 m 20,0 c -3.75806,2.16967 -0.39389,7.99685 3.3642,5.82714 3.75809,-2.1697 0.39392,-7.99688 -3.3642,-5.82714 m 10,0 c -3.75806,2.16967 -0.39389,7.99685 3.3642,5.82714 3.75809,-2.1697 0.39389,-7.99685 -3.3642,-5.82714 m 10,0 c -3.75802,2.16967 -0.39389,7.99685 3.3642,5.82714 3.75809,-2.1697 0.39392,-7.99688 -3.3642,-5.82714 m -359.999998,10 c -3.758027,2.16967 -0.393933,7.99688 3.364196,5.82714 3.758065,-2.1697 0.393914,-7.99688 -3.364196,-5.82714 m 20,0 c -3.758023,2.16967 -0.393933,7.99688 3.364196,5.82714 3.758034,-2.16967 0.393937,-7.99688 -3.364196,-5.82714 m 20,0 c -3.758034,2.16967 -0.393929,7.99688 3.364196,5.82714 3.758034,-2.16967 0.393937,-7.99688 -3.364196,-5.82714 m 10,0 c -3.758042,2.16967 -0.393929,7.99688 3.364196,5.82714 3.758042,-2.16967 0.393937,-7.99688 -3.364196,-5.82714 m 39.999998,0 c -3.75802,2.16967 -0.39392,7.99688 3.3642,5.82714 3.75801,-2.16967 0.39392,-7.99688 -3.3642,-5.82714 m 10,0 c -3.75801,2.16967 -0.39393,7.99688 3.3642,5.82714 3.75802,-2.16967 0.3939,-7.99688 -3.3642,-5.82714 m 10,0 c -3.75802,2.16967 -0.39392,7.99688 3.3642,5.82714 3.75801,-2.16967 0.39392,-7.99688 -3.3642,-5.82714 m 120,0 c -3.75806,2.1697 -0.39389,7.99685 3.3642,5.82714 3.75806,-2.16967 0.39392,-7.99688 -3.3642,-5.82714 m 20,0 c -3.75806,2.16967 -0.39392,7.99688 3.3642,5.82714 3.75806,-2.1697 0.39395,-7.99688 -3.3642,-5.82714 m 30,0 c -3.75806,2.1697 -0.39389,7.99685 3.3642,5.82714 3.75809,-2.1697 0.39392,-7.99688 -3.3642,-5.82714 m 30,0 c -3.75802,2.16967 -0.39395,7.99688 3.3642,5.82714 3.75809,-2.1697 0.39389,-7.99685 -3.3642,-5.82714 m 50,0 c -3.75802,2.16967 -0.39392,7.99688 3.3642,5.82714 3.75809,-2.1697 0.39392,-7.99688 -3.3642,-5.82714 m -359.999998,10 c -3.758011,2.16967 -0.393948,7.99688 3.364196,5.82714 3.75808,-2.1697 0.393891,-7.99685 -3.364196,-5.82714 m 40,0 c -3.758034,2.16967 -0.393944,7.99688 3.364196,5.82714 3.758042,-2.16967 0.393921,-7.99688 -3.364196,-5.82714 m 10,0 c -3.758034,2.16967 -0.393937,7.99688 3.364196,5.82714 3.758042,-2.16967 0.393921,-7.99688 -3.364196,-5.82714 m 9.999998,0 c -3.758032,2.16967 -0.39394,7.99688 3.3642,5.82714 3.75804,-2.16967 0.39392,-7.99688 -3.3642,-5.82714 m 20,0 c -3.75803,2.16967 -0.39393,7.99688 3.3642,5.82714 3.75802,-2.16967 0.39391,-7.99688 -3.3642,-5.82714 m 20,0 c -3.75801,2.16967 -0.39393,7.99688 3.3642,5.82714 3.75802,-2.16967 0.3939,-7.99688 -3.3642,-5.82714 m 150,0 c -3.75802,2.16967 -0.39392,7.99688 3.3642,5.82714 3.75806,-2.1697 0.39392,-7.99688 -3.3642,-5.82714 m 10,0 c -3.75802,2.16967 -0.39392,7.99688 3.3642,5.82714 3.75809,-2.1697 0.39389,-7.99685 -3.3642,-5.82714 m 10,0 c -3.75802,2.16967 -0.39395,7.99688 3.3642,5.82714 3.75809,-2.1697 0.39389,-7.99685 -3.3642,-5.82714 m 10,0 c -3.75806,2.16967 -0.39392,7.99688 3.3642,5.82714 3.75809,-2.1697 0.39392,-7.99688 -3.3642,-5.82714 m 10,0 c -3.75806,2.16967 -0.39392,7.99688 3.3642,5.82714 3.75806,-2.1697 0.39392,-7.99688 -3.3642,-5.82714 m 20,0 c -3.75799,2.16967 -0.39395,7.99688 3.3642,5.82714 3.75809,-2.1697 0.39389,-7.99685 -3.3642,-5.82714 m 10,0 c -3.75806,2.16967 -0.39395,7.99688 3.3642,5.82714 3.75809,-2.1697 0.39389,-7.99685 -3.3642,-5.82714 m 10,0 c -3.75806,2.16967 -0.39392,7.99688 3.3642,5.82714 3.75812,-2.16973 0.39389,-7.99685 -3.3642,-5.82714 m 20,0 c -3.75806,2.16967 -0.39392,7.99688 3.3642,5.82714 3.75809,-2.1697 0.39389,-7.99685 -3.3642,-5.82714 m 10,0 c -3.75802,2.16967 -0.39392,7.99688 3.3642,5.82714 3.75809,-2.1697 0.39392,-7.99688 -3.3642,-5.82714 m -359.999998,10 c -3.758042,2.16967 -0.39394,7.99685 3.364196,5.82714 3.758049,-2.16966 0.393937,-7.99688 -3.364196,-5.82714 m 10,0 c -3.758042,2.16967 -0.393937,7.99685 3.364196,5.82714 3.758046,-2.16966 0.393937,-7.99688 -3.364196,-5.82714 m 10,0 c -3.758046,2.16967 -0.393944,7.99685 3.364196,5.82714 3.758088,-2.16967 0.393898,-7.99685 -3.364196,-5.82714 m 10,0 c -3.758011,2.16966 -0.393967,7.99687 3.364196,5.82714 3.758088,-2.16967 0.393898,-7.99685 -3.364196,-5.82714 m 59.999998,0 c -3.75799,2.16966 -0.39397,7.99687 3.3642,5.82714 3.75806,-2.16967 0.3939,-7.99685 -3.3642,-5.82714 m 10,0 c -3.75799,2.16966 -0.39393,7.99685 3.3642,5.82714 3.75806,-2.16966 0.3939,-7.99688 -3.3642,-5.82714 m 20,0 c -3.75799,2.16966 -0.39395,7.99687 3.3642,5.82714 3.75806,-2.16967 0.3939,-7.99685 -3.3642,-5.82714 m 110,0 c -3.75809,2.1697 -0.39392,7.99684 3.3642,5.82714 3.75802,-2.16964 0.39392,-7.99685 -3.3642,-5.82714 m 10,0 c -3.75806,2.16969 -0.39395,7.99685 3.3642,5.82714 3.75802,-2.16964 0.39392,-7.99688 -3.3642,-5.82714 m 10,0 c -3.75806,2.16969 -0.39392,7.99684 3.3642,5.82714 3.75802,-2.16964 0.39392,-7.99688 -3.3642,-5.82714 m 20,0 c -3.75802,2.16967 -0.39395,7.99687 3.3642,5.82714 3.75802,-2.16964 0.39392,-7.99685 -3.3642,-5.82714 m 10,0 c -3.75806,2.16967 -0.39395,7.99685 3.3642,5.82714 3.75802,-2.16963 0.39395,-7.99688 -3.3642,-5.82714 m 30,0 c -3.75802,2.16966 -0.39398,7.99688 3.3642,5.82714 3.75802,-2.16964 0.39389,-7.99685 -3.3642,-5.82714 m 10,0 c -3.75806,2.16969 -0.39395,7.99685 3.3642,5.82714 3.75802,-2.16964 0.39392,-7.99685 -3.3642,-5.82714 m 30,0 c -3.75806,2.16969 -0.39395,7.99685 3.3642,5.82714 3.75802,-2.16964 0.39392,-7.99685 -3.3642,-5.82714 m 10,0 c -3.75809,2.1697 -0.39395,7.99685 3.3642,5.82714 3.75802,-2.16963 0.39392,-7.99688 -3.3642,-5.82714 m -359.999998,10 c -3.758065,2.16966 -0.393925,7.99684 3.364196,5.82714 3.75803,-2.16964 0.393952,-7.99687 -3.364196,-5.82714 m 10,0 c -3.758076,2.16967 -0.393914,7.99684 3.364196,5.82714 3.75803,-2.16964 0.393956,-7.99687 -3.364196,-5.82714 m 10,0 c -3.758076,2.16967 -0.393914,7.99684 3.364196,5.82714 3.758019,-2.16964 0.393952,-7.99687 -3.364196,-5.82714 m 10,0 c -3.758095,2.16969 -0.393914,7.99684 3.364196,5.82714 3.758019,-2.16964 0.393952,-7.99685 -3.364196,-5.82714 m 10,0 c -3.758095,2.16967 -0.393914,7.99684 3.364196,5.82714 3.758011,-2.16963 0.393959,-7.99687 -3.364196,-5.82714 m 19.999998,0 c -3.758086,2.16967 -0.39392,7.99684 3.3642,5.82714 3.758,-2.16963 0.39397,-7.99687 -3.3642,-5.82714 m 10,0 c -3.75809,2.16967 -0.39392,7.99684 3.3642,5.82714 3.758,-2.16963 0.39396,-7.99687 -3.3642,-5.82714 m 10,0 c -3.75809,2.16969 -0.39391,7.99685 3.3642,5.82714 3.75804,-2.16966 0.39392,-7.99684 -3.3642,-5.82714 m 10,0 c -3.75804,2.16966 -0.39392,7.99685 3.3642,5.82714 3.75806,-2.16967 0.39392,-7.99685 -3.3642,-5.82714 m 20,0 c -3.75802,2.16964 -0.39392,7.99685 3.3642,5.82714 3.75807,-2.16967 0.3939,-7.99684 -3.3642,-5.82714 m 10,0 c -3.75802,2.16964 -0.39393,7.99685 3.3642,5.82714 3.75806,-2.16966 0.39392,-7.99685 -3.3642,-5.82714 m 140,0 c -3.75806,2.16966 -0.39395,7.99685 3.3642,5.82714 3.75806,-2.16966 0.39392,-7.99684 -3.3642,-5.82714 m 10,0 c -3.75809,2.16967 -0.39392,7.99684 3.3642,5.82714 3.75802,-2.16964 0.39395,-7.99685 -3.3642,-5.82714 m 20,0 c -3.75809,2.16967 -0.39392,7.99684 3.3642,5.82714 3.75806,-2.16966 0.39392,-7.99684 -3.3642,-5.82714 m 50,0 c -3.75806,2.16966 -0.39395,7.99685 3.3642,5.82714 3.75806,-2.16966 0.39392,-7.99684 -3.3642,-5.82714 m 10,0 c -3.75809,2.16967 -0.39392,7.99684 3.3642,5.82714 3.75806,-2.16966 0.39392,-7.99685 -3.3642,-5.82714 m 10,0 c -3.75809,2.16967 -0.39392,7.99684 3.3642,5.82714 3.75806,-2.16966 0.39395,-7.99685 -3.3642,-5.82714 m -359.999998,10 c -3.758065,2.16966 -0.393921,7.99684 3.364196,5.82714 3.758042,-2.16966 0.393937,-7.99685 -3.364196,-5.82714 m 20,0 c -3.758072,2.16967 -0.393914,7.99684 3.364196,5.82714 3.758027,-2.16964 0.393952,-7.99687 -3.364196,-5.82714 m 10,0 c -3.75811,2.16969 -0.393906,7.99684 3.364196,5.82714 3.758019,-2.16964 0.393959,-7.99687 -3.364196,-5.82714 m 10,0 c -3.75811,2.16969 -0.393906,7.99684 3.364196,5.82714 3.758011,-2.16963 0.393967,-7.99687 -3.364196,-5.82714 m 89.999998,0 c -3.75802,2.16964 -0.39392,7.99685 3.3642,5.82714 3.75806,-2.16966 0.39393,-7.99685 -3.3642,-5.82714 m 110,0 c -3.75809,2.16967 -0.39389,7.99682 3.3642,5.82714 3.75806,-2.16966 0.39392,-7.99685 -3.3642,-5.82714 m 10,0 c -3.75809,2.16969 -0.39389,7.99682 3.3642,5.82714 3.75809,-2.16967 0.39392,-7.99684 -3.3642,-5.82714 m 20,0 c -3.75809,2.16967 -0.39389,7.99684 3.3642,5.82714 3.75802,-2.16964 0.39395,-7.99687 -3.3642,-5.82714 m 10,0 c -3.75809,2.16967 -0.39389,7.99682 3.3642,5.82714 3.75802,-2.16964 0.39395,-7.99685 -3.3642,-5.82714 m 20,0 c -3.75809,2.16969 -0.39392,7.99684 3.3642,5.82714 3.75802,-2.16964 0.39395,-7.99685 -3.3642,-5.82714 m 10,0 c -3.75809,2.16967 -0.39392,7.99684 3.3642,5.82714 3.75806,-2.16966 0.39392,-7.99684 -3.3642,-5.82714 m 10,0 c -3.75809,2.16967 -0.39392,7.99684 3.3642,5.82714 3.75806,-2.16966 0.39392,-7.99685 -3.3642,-5.82714 m 30,0 c -3.75809,2.16969 -0.39389,7.99682 3.3642,5.82714 3.75806,-2.16966 0.39395,-7.99685 -3.3642,-5.82714 m -349.999998,10 c -3.758068,2.16966 -0.393921,7.99684 3.364196,5.82714 3.758053,-2.16966 0.393944,-7.99685 -3.364196,-5.82714 m 20,0 c -3.758076,2.16967 -0.393914,7.99684 3.364196,5.82714 3.758034,-2.16964 0.393937,-7.99685 -3.364196,-5.82714 m 20,0 c -3.758103,2.16969 -0.393906,7.99684 3.364196,5.82714 3.758027,-2.16964 0.393944,-7.99685 -3.364196,-5.82714 m 10,0 c -3.758103,2.16969 -0.393906,7.99684 3.364196,5.82714 3.758022,-2.16964 0.393944,-7.99685 -3.364196,-5.82714 m 9.999998,0 c -3.758101,2.16969 -0.39391,7.99684 3.3642,5.82714 3.75802,-2.16964 0.39395,-7.99685 -3.3642,-5.82714 m 50,0 c -3.75802,2.16964 -0.3939,7.99684 3.3642,5.82714 3.75806,-2.16967 0.3939,-7.99684 -3.3642,-5.82714 m 10,0 c -3.75802,2.16964 -0.39392,7.99685 3.3642,5.82714 3.75804,-2.16966 0.39393,-7.99685 -3.3642,-5.82714 m 130,0 c -3.75809,2.16967 -0.39389,7.99684 3.3642,5.82714 3.75809,-2.16967 0.39389,-7.99684 -3.3642,-5.82714 m 10,0 c -3.75806,2.16966 -0.39392,7.99685 3.3642,5.82714 3.75806,-2.16966 0.39392,-7.99684 -3.3642,-5.82714 m 60,0 c -3.75806,2.16967 -0.39392,7.99684 3.3642,5.82714 3.75806,-2.16966 0.39392,-7.99685 -3.3642,-5.82714 m 30,0 c -3.75809,2.16967 -0.39389,7.99682 3.3642,5.82714 3.75806,-2.16966 0.39392,-7.99685 -3.3642,-5.82714 m 10,0 c -3.75809,2.16967 -0.39392,7.99684 3.3642,5.82714 3.75806,-2.16966 0.39395,-7.99685 -3.3642,-5.82714 m -349.999998,10 c -3.758068,2.16966 -0.393921,7.99684 3.364196,5.82714 3.758046,-2.16966 0.393944,-7.99685 -3.364196,-5.82714 m 10,0 c -3.758072,2.16967 -0.393921,7.99684 3.364196,5.82714 3.758034,-2.16964 0.393952,-7.99685 -3.364196,-5.82714 m 20,0 c -3.758103,2.16969 -0.393914,7.99684 3.364196,5.82714 3.758027,-2.16964 0.393959,-7.99687 -3.364196,-5.82714 m 49.999998,0 c -3.75804,2.16966 -0.39392,7.99685 3.3642,5.82714 3.75804,-2.16966 0.39395,-7.99687 -3.3642,-5.82714 m 10,0 c -3.75804,2.16966 -0.39392,7.99685 3.3642,5.82714 3.75804,-2.16966 0.39393,-7.99685 -3.3642,-5.82714 m 10,0 c -3.75802,2.16964 -0.39392,7.99685 3.3642,5.82714 3.75806,-2.16967 0.39392,-7.99685 -3.3642,-5.82714 m 10,0 c -3.75802,2.16964 -0.39393,7.99685 3.3642,5.82714 3.75804,-2.16966 0.39393,-7.99687 -3.3642,-5.82714 m 10,0 c -3.75802,2.16964 -0.39392,7.99685 3.3642,5.82714 3.75804,-2.16966 0.39393,-7.99687 -3.3642,-5.82714 m 110,0 c -3.75809,2.16967 -0.39392,7.99684 3.3642,5.82714 3.75806,-2.16966 0.39392,-7.99685 -3.3642,-5.82714 m 20,0 c -3.75809,2.16967 -0.39392,7.99684 3.3642,5.82714 3.75806,-2.16964 0.39392,-7.99685 -3.3642,-5.82714 m 20,0 c -3.75809,2.16967 -0.39389,7.99684 3.3642,5.82714 3.75802,-2.16964 0.39395,-7.99685 -3.3642,-5.82714 m 10,0 c -3.75809,2.16969 -0.39389,7.99684 3.3642,5.82714 3.75806,-2.16966 0.39392,-7.99684 -3.3642,-5.82714 m 10,0 c -3.75809,2.16967 -0.39392,7.99684 3.3642,5.82714 3.75802,-2.16964 0.39395,-7.99685 -3.3642,-5.82714 m 10,0 c -3.75809,2.16967 -0.39392,7.99684 3.3642,5.82714 3.75806,-2.16966 0.39392,-7.99684 -3.3642,-5.82714 m 10,0 c -3.75809,2.16967 -0.39392,7.99684 3.3642,5.82714 3.75806,-2.16964 0.39392,-7.99685 -3.3642,-5.82714 m 40,0 c -3.75809,2.16967 -0.39389,7.99684 3.3642,5.82714 3.75806,-2.16966 0.39395,-7.99685 -3.3642,-5.82714 m -349.999998,10 c -3.758076,2.16967 -0.393914,7.99684 3.364196,5.82714 3.758042,-2.16966 0.393944,-7.99685 -3.364196,-5.82714 m 30,0 c -3.758095,2.16967 -0.393921,7.99684 3.364196,5.82714 3.758027,-2.16964 0.393952,-7.99685 -3.364196,-5.82714 m 19.999998,0 c -3.758086,2.16967 -0.39393,7.99685 3.3642,5.82714 3.75802,-2.16964 0.39395,-7.99687 -3.3642,-5.82714 m 10,0 c -3.75809,2.16967 -0.39392,7.99684 3.3642,5.82714 3.75802,-2.16964 0.39394,-7.99685 -3.3642,-5.82714 m 30,0 c -3.75806,2.16966 -0.3939,7.99684 3.3642,5.82714 3.75804,-2.16966 0.39392,-7.99685 -3.3642,-5.82714 m 10,0 c -3.75804,2.16966 -0.3939,7.99684 3.3642,5.82714 3.75807,-2.16967 0.3939,-7.99684 -3.3642,-5.82714 m 10,0 c -3.75804,2.16966 -0.39392,7.99685 3.3642,5.82714 3.75804,-2.16966 0.39393,-7.99685 -3.3642,-5.82714 m 10,0 c -3.75804,2.16966 -0.3939,7.99684 3.3642,5.82714 3.75806,-2.16966 0.39393,-7.99685 -3.3642,-5.82714 m 110,0 c -3.75809,2.16967 -0.39392,7.99684 3.3642,5.82714 3.75806,-2.16966 0.39392,-7.99685 -3.3642,-5.82714 m 10,0 c -3.75809,2.16967 -0.39389,7.99684 3.3642,5.82714 3.75809,-2.16967 0.39392,-7.99684 -3.3642,-5.82714 m 10,0 c -3.75809,2.16967 -0.39392,7.99685 3.3642,5.82714 3.75806,-2.16966 0.39392,-7.99685 -3.3642,-5.82714 m 30,0 c -3.75809,2.16969 -0.39392,7.99684 3.3642,5.82714 3.75806,-2.16966 0.39392,-7.99684 -3.3642,-5.82714 m 10,0 c -3.75809,2.16967 -0.39392,7.99684 3.3642,5.82714 3.75802,-2.16964 0.39395,-7.99685 -3.3642,-5.82714 m 20,0 c -3.75809,2.16967 -0.39392,7.99684 3.3642,5.82714 3.75806,-2.16964 0.39392,-7.99685 -3.3642,-5.82714 m 10,0 c -3.75809,2.16967 -0.39392,7.99684 3.3642,5.82714 3.75802,-2.16964 0.39395,-7.99685 -3.3642,-5.82714 m 10,0 c -3.75809,2.16967 -0.39392,7.99685 3.3642,5.82714 3.75806,-2.16966 0.39392,-7.99684 -3.3642,-5.82714 m -319.999998,10 c -3.75808,2.16967 -0.393914,7.99682 3.364196,5.82714 3.758027,-2.16964 0.393952,-7.99687 -3.364196,-5.82714 m 10,0 c -3.758103,2.16969 -0.393906,7.99682 3.364196,5.82714 3.758027,-2.16964 0.393952,-7.99687 -3.364196,-5.82714 m 39.999998,0 c -3.7581,2.16969 -0.39391,7.99682 3.3642,5.82714 3.75801,-2.16963 0.39396,-7.99687 -3.3642,-5.82714 m 10,0 c -3.7581,2.16969 -0.3939,7.99682 3.3642,5.82714 3.75804,-2.16966 0.39392,-7.99684 -3.3642,-5.82714 m 10,0 c -3.75804,2.16966 -0.39392,7.99685 3.3642,5.82714 3.75804,-2.16966 0.39393,-7.99685 -3.3642,-5.82714 m 30,0 c -3.75802,2.16964 -0.39392,7.99685 3.3642,5.82714 3.75804,-2.16966 0.39393,-7.99685 -3.3642,-5.82714 m 10,0 c -3.75802,2.16964 -0.39392,7.99685 3.3642,5.82714 3.75806,-2.16966 0.39393,-7.99685 -3.3642,-5.82714 m 100,0 c -3.75809,2.16969 -0.39389,7.99682 3.3642,5.82714 3.75806,-2.16966 0.39392,-7.99684 -3.3642,-5.82714 m 50,0 c -3.75809,2.16967 -0.39389,7.99682 3.3642,5.82714 3.75802,-2.16964 0.39395,-7.99685 -3.3642,-5.82714 m 50,0 c -3.75809,2.16967 -0.39389,7.99682 3.3642,5.82714 3.75802,-2.16964 0.39395,-7.99685 -3.3642,-5.82714 m -329.999998,10 c -3.758061,2.16967 -0.393925,7.99682 3.364196,5.82714 3.758046,-2.16967 0.39394,-7.99685 -3.364196,-5.82714 m 10,0 c -3.758068,2.16967 -0.393917,7.99682 3.364196,5.82714 3.758046,-2.16967 0.393944,-7.99685 -3.364196,-5.82714 m 10,0 c -3.758068,2.16967 -0.393921,7.99682 3.364196,5.82714 3.758049,-2.16967 0.393937,-7.99685 -3.364196,-5.82714 m 10,0 c -3.758095,2.16967 -0.393914,7.99682 3.364196,5.82714 3.758049,-2.16967 0.393937,-7.99685 -3.364196,-5.82714 m 10,0 c -3.758095,2.16967 -0.393921,7.99682 3.364196,5.82714 3.758042,-2.16964 0.393944,-7.99685 -3.364196,-5.82714 m 10,0 c -3.758095,2.16967 -0.393921,7.99682 3.364196,5.82714 3.758042,-2.16964 0.393937,-7.99685 -3.364196,-5.82714 m 9.999998,0 c -3.758086,2.16967 -0.39393,7.99685 3.3642,5.82714 3.75803,-2.16964 0.39395,-7.99685 -3.3642,-5.82714 m 10,0 c -3.75809,2.16967 -0.39392,7.99682 3.3642,5.82714 3.75803,-2.16964 0.39394,-7.99685 -3.3642,-5.82714 m 30,0 c -3.75802,2.16967 -0.39392,7.99685 3.3642,5.82714 3.75804,-2.16967 0.39393,-7.99685 -3.3642,-5.82714 m 10,0 c -3.75802,2.16964 -0.39392,7.99685 3.3642,5.82714 3.75806,-2.16967 0.39392,-7.99685 -3.3642,-5.82714 m 10,0 c -3.75802,2.16964 -0.39393,7.99685 3.3642,5.82714 3.75804,-2.16967 0.39393,-7.99685 -3.3642,-5.82714 m 120,0 c -3.75809,2.16967 -0.39389,7.99682 3.3642,5.82714 3.75806,-2.16967 0.39392,-7.99682 -3.3642,-5.82714 m 30,0 c -3.75809,2.16967 -0.39392,7.99682 3.3642,5.82714 3.75802,-2.16964 0.39395,-7.99685 -3.3642,-5.82714 m 10,0 c -3.75809,2.16967 -0.39389,7.99682 3.3642,5.82714 3.75806,-2.16967 0.39395,-7.99685 -3.3642,-5.82714 m 20,0 c -3.75812,2.16967 -0.39392,7.99682 3.3642,5.82714 3.75806,-2.16964 0.39392,-7.99685 -3.3642,-5.82714 m 10,0 c -3.75809,2.16967 -0.39392,7.99682 3.3642,5.82714 3.75806,-2.16967 0.39392,-7.99682 -3.3642,-5.82714 m 10,0 c -3.75809,2.16967 -0.39392,7.99682 3.3642,5.82714 3.75806,-2.16967 0.39392,-7.99685 -3.3642,-5.82714 m 10,0 c -3.75812,2.16967 -0.39389,7.99682 3.3642,5.82714 3.75802,-2.16964 0.39392,-7.99685 -3.3642,-5.82714 m 20,0 c -3.75809,2.16967 -0.39389,7.99682 3.3642,5.82714 3.75806,-2.16967 0.39392,-7.99685 -3.3642,-5.82714 m 10,0 c -3.75809,2.16967 -0.39389,7.99682 3.3642,5.82714 3.75806,-2.16967 0.39395,-7.99685 -3.3642,-5.82714 m -319.999998,10 c -3.758088,2.16967 -0.393914,7.99682 3.364196,5.82714 3.758027,-2.16964 0.393952,-7.99685 -3.364196,-5.82714 m 10,0 c -3.758088,2.16967 -0.393921,7.99682 3.364196,5.82714 3.758022,-2.16964 0.393944,-7.99685 -3.364196,-5.82714 m 19.999998,0 c -3.75809,2.16967 -0.39392,7.99682 3.3642,5.82714 3.75802,-2.16964 0.39394,-7.99685 -3.3642,-5.82714 m 20,0 c -3.75804,2.16967 -0.39392,7.99685 3.3642,5.82714 3.75804,-2.16967 0.39395,-7.99688 -3.3642,-5.82714 m 30,0 c -3.75802,2.16964 -0.39393,7.99685 3.3642,5.82714 3.75804,-2.16967 0.39393,-7.99688 -3.3642,-5.82714 m 10,0 c -3.75802,2.16964 -0.39392,7.99685 3.3642,5.82714 3.75804,-2.16967 0.39393,-7.99688 -3.3642,-5.82714 m 100,0 c -3.75809,2.16967 -0.39389,7.99682 3.3642,5.82714 3.75809,-2.16967 0.39392,-7.99682 -3.3642,-5.82714 m 30,0 c -3.75806,2.16967 -0.39392,7.99685 3.3642,5.82714 3.75806,-2.16967 0.39392,-7.99682 -3.3642,-5.82714 m 10,0 c -3.75809,2.16967 -0.39392,7.99682 3.3642,5.82714 3.75802,-2.16964 0.39395,-7.99685 -3.3642,-5.82714 m 20,0 c -3.75809,2.16967 -0.39392,7.99682 3.3642,5.82714 3.75806,-2.16967 0.39392,-7.99682 -3.3642,-5.82714 m 10,0 c -3.75809,2.16967 -0.39392,7.99682 3.3642,5.82714 3.75806,-2.16964 0.39392,-7.99685 -3.3642,-5.82714 m 10,0 c -3.75806,2.16967 -0.39392,7.99685 3.3642,5.82714 3.75806,-2.16967 0.39392,-7.99682 -3.3642,-5.82714 m 10,0 c -3.75809,2.16967 -0.39392,7.99682 3.3642,5.82714 3.75806,-2.16967 0.39392,-7.99682 -3.3642,-5.82714 m 30,0 c -3.75809,2.16967 -0.39389,7.99682 3.3642,5.82714 3.75806,-2.16967 0.39392,-7.99685 -3.3642,-5.82714 m -339.999998,10 c -3.758065,2.16967 -0.393925,7.99685 3.364196,5.82714 3.758042,-2.16964 0.393948,-7.99685 -3.364196,-5.82714 m 10,0 c -3.758065,2.16967 -0.393929,7.99685 3.364196,5.82714 3.758034,-2.16964 0.393944,-7.99685 -3.364196,-5.82714 m 20,0 c -3.758088,2.16967 -0.393929,7.99682 3.364196,5.82714 3.758027,-2.16964 0.393952,-7.99685 -3.364196,-5.82714 m 10,0 c -3.75808,2.16967 -0.393929,7.99685 3.364196,5.82714 3.758022,-2.16964 0.393944,-7.99685 -3.364196,-5.82714 m 9.999998,0 c -3.758078,2.16967 -0.39393,7.99685 3.3642,5.82714 3.75802,-2.16964 0.39395,-7.99688 -3.3642,-5.82714 m 10,0 c -3.75808,2.16967 -0.39393,7.99685 3.3642,5.82714 3.75802,-2.16964 0.39394,-7.99685 -3.3642,-5.82714 m 20,0 c -3.75802,2.16964 -0.39392,7.99685 3.3642,5.82714 3.75804,-2.16967 0.39393,-7.99688 -3.3642,-5.82714 m 10,0 c -3.75802,2.16967 -0.39392,7.99685 3.3642,5.82714 3.75804,-2.16967 0.39393,-7.99685 -3.3642,-5.82714 m 10,0 c -3.75802,2.16964 -0.39392,7.99685 3.3642,5.82714 3.75806,-2.16967 0.39392,-7.99685 -3.3642,-5.82714 m 20,0 c -3.75802,2.16964 -0.39392,7.99685 3.3642,5.82714 3.75804,-2.16967 0.39393,-7.99685 -3.3642,-5.82714 m 10,0 c -3.75802,2.16964 -0.39393,7.99685 3.3642,5.82714 3.75804,-2.16967 0.39393,-7.99688 -3.3642,-5.82714 m 40,0 c -3.75802,2.16964 -0.39393,7.99685 3.3642,5.82714 3.75804,-2.16967 0.39395,-7.99688 -3.3642,-5.82714 m 20,0 c -3.75801,2.16964 -0.39393,7.99685 3.3642,5.82714 3.75802,-2.16967 0.39395,-7.99688 -3.3642,-5.82714 m 10,0 c -3.75802,2.16964 -0.39393,7.99685 3.3642,5.82714 3.75809,-2.16967 0.39392,-7.99685 -3.3642,-5.82714 m 10,0 c -3.75809,2.16967 -0.39389,7.99682 3.3642,5.82714 3.75806,-2.16967 0.39392,-7.99685 -3.3642,-5.82714 m 10,0 c -3.75809,2.16967 -0.39389,7.99682 3.3642,5.82714 3.75809,-2.16967 0.39392,-7.99682 -3.3642,-5.82714 m 10,0 c -3.75809,2.16967 -0.39392,7.99682 3.3642,5.82714 3.75806,-2.16967 0.39392,-7.99685 -3.3642,-5.82714 m 30,0 c -3.75809,2.16967 -0.39392,7.99682 3.3642,5.82714 3.75802,-2.16964 0.39395,-7.99685 -3.3642,-5.82714 m 10,0 c -3.75809,2.16967 -0.39389,7.99682 3.3642,5.82714 3.75802,-2.16964 0.39395,-7.99685 -3.3642,-5.82714 m 20,0 c -3.75809,2.16967 -0.39392,7.99682 3.3642,5.82714 3.75802,-2.16964 0.39395,-7.99685 -3.3642,-5.82714 m 10,0 c -3.75809,2.16967 -0.39392,7.99682 3.3642,5.82714 3.75806,-2.16967 0.39392,-7.99682 -3.3642,-5.82714 m 30,0 c -3.75809,2.16967 -0.39392,7.99682 3.3642,5.82714 3.75806,-2.16967 0.39392,-7.99682 -3.3642,-5.82714 m 20,0 c -3.75809,2.16967 -0.39389,7.99682 3.3642,5.82714 3.75806,-2.16967 0.39395,-7.99685 -3.3642,-5.82714 m -359.999998,10 c -3.758061,2.16967 -0.393929,7.99685 3.364196,5.82714 3.758046,-2.16967 0.39394,-7.99685 -3.364196,-5.82714 m 30,0 c -3.758088,2.16967 -0.393921,7.99682 3.364196,5.82714 3.758042,-2.16964 0.393944,-7.99685 -3.364196,-5.82714 m 20,0 c -3.758088,2.16967 -0.393921,7.99682 3.364196,5.82714 3.758022,-2.16964 0.393944,-7.99685 -3.364196,-5.82714 m 19.999998,0 c -3.75809,2.16967 -0.39393,7.99682 3.3642,5.82714 3.75802,-2.16964 0.39394,-7.99685 -3.3642,-5.82714 m 70,0 c -3.75804,2.16967 -0.39392,7.99685 3.3642,5.82714 3.75804,-2.16967 0.39393,-7.99685 -3.3642,-5.82714 m 10,0 c -3.75802,2.16967 -0.3939,7.99682 3.3642,5.82714 3.75804,-2.16967 0.39393,-7.99685 -3.3642,-5.82714 m 10,0 c -3.75802,2.16964 -0.39392,7.99685 3.3642,5.82714 3.75804,-2.16967 0.39392,-7.99685 -3.3642,-5.82714 m 90,0 c -3.75809,2.16967 -0.39392,7.99682 3.3642,5.82714 3.75806,-2.16967 0.39392,-7.99685 -3.3642,-5.82714 m 10,0 c -3.75806,2.16967 -0.39392,7.99685 3.3642,5.82714 3.75806,-2.16964 0.39395,-7.99685 -3.3642,-5.82714 m 10,0 c -3.75809,2.16967 -0.39392,7.99682 3.3642,5.82714 3.75802,-2.16964 0.39395,-7.99688 -3.3642,-5.82714 m 20,0 c -3.75809,2.16967 -0.39392,7.99682 3.3642,5.82714 3.75806,-2.16967 0.39392,-7.99685 -3.3642,-5.82714 m 10,0 c -3.75809,2.16967 -0.39392,7.99682 3.3642,5.82714 3.75802,-2.16964 0.39395,-7.99685 -3.3642,-5.82714 m 30,0 c -3.75809,2.16967 -0.39392,7.99682 3.3642,5.82714 3.75802,-2.16964 0.39395,-7.99688 -3.3642,-5.82714 m -329.999998,10 c -3.758061,2.16967 -0.393925,7.99682 3.364196,5.82714 3.758049,-2.16967 0.393937,-7.99685 -3.364196,-5.82714 m 20,0 c -3.758068,2.16967 -0.393921,7.99682 3.364196,5.82714 3.758042,-2.16964 0.393937,-7.99685 -3.364196,-5.82714 m 10,0 c -3.758103,2.16967 -0.393906,7.99682 3.364196,5.82714 3.758042,-2.16964 0.393937,-7.99685 -3.364196,-5.82714 m 29.999998,0 c -3.758093,2.16967 -0.39392,7.99682 3.3642,5.82714 3.75802,-2.16964 0.39395,-7.99685 -3.3642,-5.82714 m 30,0 c -3.75802,2.16964 -0.39392,7.99685 3.3642,5.82714 3.75804,-2.16967 0.39393,-7.99685 -3.3642,-5.82714 m 10,0 c -3.75802,2.16967 -0.39392,7.99685 3.3642,5.82714 3.75804,-2.16967 0.39392,-7.99685 -3.3642,-5.82714 m 10,0 c -3.75802,2.16964 -0.39392,7.99685 3.3642,5.82714 3.75806,-2.16967 0.3939,-7.99682 -3.3642,-5.82714 m 30,0 c -3.75802,2.16964 -0.39393,7.99685 3.3642,5.82714 3.75804,-2.16967 0.39393,-7.99685 -3.3642,-5.82714 m 30,0 c -3.75802,2.16964 -0.39393,7.99685 3.3642,5.82714 3.75804,-2.16967 0.39392,-7.99685 -3.3642,-5.82714 m 10,0 c -3.75802,2.16964 -0.39393,7.99685 3.3642,5.82714 3.75804,-2.16967 0.39393,-7.99688 -3.3642,-5.82714 m 20,0 c -3.75801,2.16964 -0.39393,7.99685 3.3642,5.82714 3.75804,-2.16967 0.39393,-7.99685 -3.3642,-5.82714 m 20,0 c -3.75809,2.16967 -0.39389,7.99682 3.3642,5.82714 3.75809,-2.16967 0.39392,-7.99682 -3.3642,-5.82714 m 10,0 c -3.75809,2.16967 -0.39389,7.99682 3.3642,5.82714 3.75809,-2.16967 0.39392,-7.99682 -3.3642,-5.82714 m 10,0 c -3.75809,2.16967 -0.39389,7.99682 3.3642,5.82714 3.75806,-2.16967 0.39392,-7.99682 -3.3642,-5.82714 m 10,0 c -3.75809,2.16967 -0.39389,7.99682 3.3642,5.82714 3.75809,-2.16967 0.39389,-7.99682 -3.3642,-5.82714 m 10,0 c -3.75809,2.16967 -0.39392,7.99682 3.3642,5.82714 3.75806,-2.16967 0.39392,-7.99682 -3.3642,-5.82714 m 10,0 c -3.75809,2.16967 -0.39392,7.99682 3.3642,5.82714 3.75806,-2.16964 0.39395,-7.99685 -3.3642,-5.82714 m 10,0 c -3.75809,2.16967 -0.39389,7.99682 3.3642,5.82714 3.75806,-2.16967 0.39392,-7.99685 -3.3642,-5.82714 m 20,0 c -3.75809,2.16967 -0.39392,7.99682 3.3642,5.82714 3.75806,-2.16967 0.39392,-7.99685 -3.3642,-5.82714 m 10,0 c -3.75809,2.16967 -0.39392,7.99682 3.3642,5.82714 3.75806,-2.16967 0.39392,-7.99682 -3.3642,-5.82714 m 20,0 c -3.75809,2.16967 -0.39389,7.99682 3.3642,5.82714 3.75806,-2.16967 0.39392,-7.99685 -3.3642,-5.82714 m 10,0 c -3.75809,2.16967 -0.39392,7.99682 3.3642,5.82714 3.75806,-2.16967 0.39392,-7.99682 -3.3642,-5.82714 m 10,0 c -3.75809,2.16967 -0.39389,7.99682 3.3642,5.82714 3.75809,-2.16967 0.39392,-7.99685 -3.3642,-5.82714 m 10,0 c -3.75809,2.16967 -0.39389,7.99682 3.3642,5.82714 3.75806,-2.16967 0.39392,-7.99685 -3.3642,-5.82714 m -359.999998,10 c -3.758061,2.16967 -0.393929,7.99685 3.364196,5.82714 3.758046,-2.16967 0.39394,-7.99685 -3.364196,-5.82714 m 20,0 c -3.758068,2.16967 -0.393925,7.99682 3.364196,5.82714 3.758034,-2.16964 0.393944,-7.99685 -3.364196,-5.82714 m 10,0 c -3.758088,2.16967 -0.393914,7.99682 3.364196,5.82714 3.758034,-2.16964 0.393944,-7.99685 -3.364196,-5.82714 m 10,0 c -3.758088,2.16967 -0.393921,7.99682 3.364196,5.82714 3.758027,-2.16964 0.393952,-7.99688 -3.364196,-5.82714 m 29.999998,0 c -3.75809,2.16967 -0.39393,7.99682 3.3642,5.82714 3.75802,-2.16964 0.39394,-7.99685 -3.3642,-5.82714 m 50,0 c -3.75802,2.16964 -0.39393,7.99685 3.3642,5.82714 3.75804,-2.16967 0.39393,-7.99685 -3.3642,-5.82714 m 10,0 c -3.75802,2.16964 -0.39392,7.99685 3.3642,5.82714 3.75804,-2.16967 0.39393,-7.99688 -3.3642,-5.82714 m 30,0 c -3.75802,2.16964 -0.39393,7.99685 3.3642,5.82714 3.75804,-2.16967 0.39393,-7.99685 -3.3642,-5.82714 m 50,0 c -3.75802,2.16964 -0.39395,7.99688 3.3642,5.82714 3.75809,-2.16967 0.39392,-7.99682 -3.3642,-5.82714 m 10,0 c -3.75809,2.16967 -0.39392,7.99682 3.3642,5.82714 3.75806,-2.16967 0.39392,-7.99685 -3.3642,-5.82714 m 10,0 c -3.75809,2.16967 -0.39389,7.99682 3.3642,5.82714 3.75806,-2.16967 0.39392,-7.99682 -3.3642,-5.82714 m 30,0 c -3.75806,2.16967 -0.39395,7.99685 3.3642,5.82714 3.75806,-2.16967 0.39392,-7.99685 -3.3642,-5.82714 m 10,0 c -3.75809,2.16967 -0.39392,7.99682 3.3642,5.82714 3.75802,-2.16964 0.39395,-7.99685 -3.3642,-5.82714 m 20,0 c -3.75809,2.16967 -0.39392,7.99682 3.3642,5.82714 3.75806,-2.16967 0.39392,-7.99682 -3.3642,-5.82714 m 40,0 c -3.75809,2.16967 -0.39392,7.99682 3.3642,5.82714 3.75802,-2.16964 0.39395,-7.99685 -3.3642,-5.82714 m 20,0 c -3.75809,2.16967 -0.39392,7.99682 3.3642,5.82714 3.75806,-2.16967 0.39392,-7.99685 -3.3642,-5.82714 m -349.999998,10 c -3.758057,2.16967 -0.393929,7.99688 3.364196,5.82714 3.758053,-2.16967 0.393933,-7.99685 -3.364196,-5.82714 m 40,0 c -3.758072,2.16967 -0.393914,7.99685 3.364196,5.82714 3.758042,-2.16967 0.393937,-7.99685 -3.364196,-5.82714 m 19.999998,0 c -3.758063,2.16967 -0.39392,7.99688 3.3642,5.82714 3.75805,-2.16967 0.39393,-7.99685 -3.3642,-5.82714 m 10,0 c -3.75806,2.16967 -0.39393,7.99688 3.3642,5.82714 3.75806,-2.16967 0.39393,-7.99682 -3.3642,-5.82714 m 50,0 c -3.75802,2.16964 -0.39393,7.99688 3.3642,5.82714 3.75799,-2.16964 0.39395,-7.99688 -3.3642,-5.82714 m 10,0 c -3.75801,2.16964 -0.39395,7.99688 3.3642,5.82714 3.75799,-2.16964 0.39393,-7.99685 -3.3642,-5.82714 m 40,0 c -3.75801,2.16964 -0.39393,7.99688 3.3642,5.82714 3.75798,-2.16964 0.39395,-7.99688 -3.3642,-5.82714 m 50,0 c -3.75806,2.16964 -0.39395,7.99688 3.3642,5.82714 3.75806,-2.16967 0.39392,-7.99682 -3.3642,-5.82714 m 10,0 c -3.75806,2.16964 -0.39392,7.99688 3.3642,5.82714 3.75806,-2.16967 0.39392,-7.99682 -3.3642,-5.82714 m 10,0 c -3.75806,2.16964 -0.39392,7.99688 3.3642,5.82714 3.75809,-2.16967 0.39389,-7.99682 -3.3642,-5.82714 m 10,0 c -3.75802,2.16964 -0.39395,7.99688 3.3642,5.82714 3.75806,-2.16967 0.39392,-7.99685 -3.3642,-5.82714 m 10,0 c -3.75802,2.16964 -0.39395,7.99688 3.3642,5.82714 3.75806,-2.16967 0.39392,-7.99682 -3.3642,-5.82714 m 10,0 c -3.75802,2.16964 -0.39395,7.99688 3.3642,5.82714 3.75806,-2.16967 0.39392,-7.99682 -3.3642,-5.82714 m 10,0 c -3.75806,2.16964 -0.39392,7.99685 3.3642,5.82714 3.75806,-2.16967 0.39392,-7.99682 -3.3642,-5.82714 m 10,0 c -3.75799,2.16961 -0.39398,7.99688 3.3642,5.82714 3.75806,-2.16967 0.39392,-7.99682 -3.3642,-5.82714 m 10,0 c -3.75802,2.16964 -0.39392,7.99688 3.3642,5.82714 3.75806,-2.16967 0.39392,-7.99682 -3.3642,-5.82714 m 10,0 c -3.75802,2.16964 -0.39395,7.99688 3.3642,5.82714 3.75809,-2.16967 0.39392,-7.99682 -3.3642,-5.82714 m 10,0 c -3.75806,2.16967 -0.39389,7.99685 3.3642,5.82714 3.75806,-2.16967 0.39395,-7.99685 -3.3642,-5.82714 m 10,0 c -3.75802,2.16964 -0.39395,7.99688 3.3642,5.82714 3.75806,-2.16967 0.39389,-7.99682 -3.3642,-5.82714 m 20,0 c -3.75802,2.16964 -0.39392,7.99688 3.3642,5.82714 3.75806,-2.16967 0.39392,-7.99682 -3.3642,-5.82714 m -270,10 c -3.75806,2.16967 -0.39393,7.99688 3.3642,5.82714 3.75802,-2.16967 0.39394,-7.99688 -3.3642,-5.82714 m 10,0 c -3.75806,2.16967 -0.39392,7.99688 3.3642,5.82714 3.75801,-2.16964 0.39393,-7.99688 -3.3642,-5.82714 m 20,0 c -3.75806,2.16967 -0.3939,7.99688 3.3642,5.82714 3.75801,-2.16964 0.39392,-7.99688 -3.3642,-5.82714 m 10,0 c -3.75806,2.16967 -0.39392,7.99688 3.3642,5.82714 3.75801,-2.16964 0.39393,-7.99688 -3.3642,-5.82714 m 10,0 c -3.75804,2.16967 -0.3939,7.99688 3.3642,5.82714 3.75799,-2.16964 0.39393,-7.99688 -3.3642,-5.82714 m 10,0 c -3.75806,2.16967 -0.3939,7.99688 3.3642,5.82714 3.75799,-2.16964 0.39393,-7.99688 -3.3642,-5.82714 m 20,0 c -3.75804,2.16967 -0.39392,7.99688 3.3642,5.82714 3.75799,-2.16964 0.39393,-7.99688 -3.3642,-5.82714 m 10,0 c -3.75804,2.16967 -0.39393,7.99688 3.3642,5.82714 3.75799,-2.16964 0.39395,-7.99688 -3.3642,-5.82714 m 10,0 c -3.75806,2.16967 -0.3939,7.99688 3.3642,5.82714 3.75799,-2.16964 0.39395,-7.99688 -3.3642,-5.82714 m 10,0 c -3.75806,2.16967 -0.3939,7.99688 3.3642,5.82714 3.75799,-2.16964 0.39395,-7.99688 -3.3642,-5.82714 m 10,0 c -3.75806,2.16967 -0.39392,7.99688 3.3642,5.82714 3.75799,-2.16964 0.39393,-7.99688 -3.3642,-5.82714 m 10,0 c -3.75802,2.16967 -0.39392,7.99688 3.3642,5.82714 3.75806,-2.16967 0.39392,-7.99688 -3.3642,-5.82714 m 20,0 c -3.75809,2.16967 -0.39392,7.99688 3.3642,5.82714 3.75802,-2.16964 0.39395,-7.99688 -3.3642,-5.82714 m 10,0 c -3.75809,2.16967 -0.39389,7.99685 3.3642,5.82714 3.75799,-2.16964 0.39395,-7.99688 -3.3642,-5.82714 m 10,0 c -3.75809,2.16967 -0.39389,7.99685 3.3642,5.82714 3.75802,-2.16967 0.39392,-7.99688 -3.3642,-5.82714 m 10,0 c -3.75812,2.1697 -0.39389,7.99685 3.3642,5.82714 3.75802,-2.16964 0.39395,-7.99688 -3.3642,-5.82714 m 10,0 c -3.75806,2.16967 -0.39392,7.99688 3.3642,5.82714 3.75802,-2.16964 0.39395,-7.99688 -3.3642,-5.82714 m 10,0 c -3.75809,2.16967 -0.39389,7.99685 3.3642,5.82714 3.75806,-2.16967 0.39392,-7.99688 -3.3642,-5.82714 m 40,0 c -3.75809,2.16967 -0.39389,7.99685 3.3642,5.82714 3.75802,-2.16964 0.39398,-7.99688 -3.3642,-5.82714 m 10,0 c -3.75809,2.16967 -0.39392,7.99688 3.3642,5.82714 3.75799,-2.16964 0.39398,-7.99688 -3.3642,-5.82714 M 47.003857,340.74228 C 40.675011,343.19418 40.009857,349.10342 40,355 v 36 c 0,4.91583 -0.903862,10.81046 2.43364,14.8912 3.756004,4.59244 9.210701,4.10846 14.56636,4.1088 13.046593,8.5e-4 33.83046,3.98599 45.99537,-0.74228 6.14949,-2.3902 6.97567,-8.48962 7.00386,-14.25772 0.0587,-11.99936 7.7e-4,-24.00049 7.7e-4,-36 0,-4.9158 0.90385,-10.81046 -2.43364,-14.8912 C 103.81036,339.51636 98.355659,340.00034 93,340 c -13.059914,-8.5e-4 -33.813507,-3.97745 -45.996143,0.74228 m 86.314043,1.34415 c -3.75804,2.16967 -0.39392,7.99688 3.3642,5.82714 3.75801,-2.16964 0.39393,-7.99688 -3.3642,-5.82714 m 20,0 c -3.75806,2.16967 -0.3939,7.99688 3.3642,5.82714 3.75801,-2.16964 0.39392,-7.99688 -3.3642,-5.82714 m 20,0 c -3.75804,2.16967 -0.39392,7.99688 3.3642,5.82714 3.75799,-2.16964 0.39393,-7.99688 -3.3642,-5.82714 m 10,0 c -3.75806,2.16967 -0.39392,7.99688 3.3642,5.82714 3.75799,-2.16964 0.39393,-7.99688 -3.3642,-5.82714 m 10,0 c -3.75806,2.16967 -0.3939,7.99688 3.3642,5.82714 3.75799,-2.16964 0.39393,-7.99688 -3.3642,-5.82714 m 20,0 c -3.75804,2.16967 -0.39393,7.99688 3.3642,5.82714 3.75798,-2.16964 0.39395,-7.99688 -3.3642,-5.82714 m 30,0 c -3.75806,2.16967 -0.39392,7.99688 3.3642,5.82714 3.75799,-2.16964 0.39393,-7.99688 -3.3642,-5.82714 m 10,0 c -3.75802,2.16967 -0.39392,7.99688 3.3642,5.82714 3.75806,-2.16967 0.39392,-7.99688 -3.3642,-5.82714 m 30,0 c -3.75809,2.1697 -0.39389,7.99685 3.3642,5.82714 3.75802,-2.16964 0.39395,-7.99688 -3.3642,-5.82714 m 10,0 c -3.75809,2.16967 -0.39392,7.99685 3.3642,5.82714 3.75806,-2.16967 0.39392,-7.99688 -3.3642,-5.82714 m 10,0 c -3.75812,2.1697 -0.39389,7.99685 3.3642,5.82714 3.75802,-2.16964 0.39395,-7.99688 -3.3642,-5.82714 m 20,0 c -3.75809,2.16967 -0.39389,7.99685 3.3642,5.82714 3.75806,-2.16967 0.39392,-7.99688 -3.3642,-5.82714 m 20,0 c -3.75809,2.16967 -0.39389,7.99685 3.3642,5.82714 3.75802,-2.16964 0.39398,-7.99688 -3.3642,-5.82714 m 20,0 c -3.75809,2.16967 -0.39389,7.99685 3.3642,5.82714 3.75802,-2.16964 0.39395,-7.99688 -3.3642,-5.82714 m 20,0 c -3.75809,2.16967 -0.39392,7.99688 3.3642,5.82714 3.75802,-2.16964 0.39395,-7.99688 -3.3642,-5.82714 m 10,0 c -3.75812,2.1697 -0.39389,7.99685 3.3642,5.82714 3.75799,-2.16961 0.39398,-7.99688 -3.3642,-5.82714 m 10,0 c -3.75812,2.1697 -0.39386,7.99682 3.3642,5.82714 3.75802,-2.16967 0.39395,-7.99688 -3.3642,-5.82714 m -345.317129,8.34722 c 8.666633,-2.3832 34.906456,-3.50589 40.256942,4.61033 C 100.5488,358.51935 99.999748,363.04074 100,367 c 6e-4,9.25107 3.9241,29.28317 -8.000771,32.56635 -8.664634,2.38558 -34.907745,3.5039 -40.256946,-4.61033 C 49.451199,391.48065 50.000256,386.95926 50,383 c -6.03e-4,-9.35754 -4.019291,-29.26105 8.000771,-32.56635 m 65.317129,1.65278 c -3.75806,2.16967 -0.39393,7.99688 3.3642,5.82714 3.75802,-2.16967 0.39393,-7.99688 -3.3642,-5.82714 m 40,0 c -3.75806,2.16967 -0.39392,7.99688 3.3642,5.82714 3.75801,-2.16964 0.39393,-7.99688 -3.3642,-5.82714 m 10,0 c -3.75804,2.16967 -0.39392,7.99688 3.3642,5.82714 3.75799,-2.16964 0.39395,-7.99688 -3.3642,-5.82714 m 10,0 c -3.75806,2.16967 -0.39392,7.99688 3.3642,5.82714 3.75799,-2.16964 0.39395,-7.99688 -3.3642,-5.82714 m 10,0 c -3.75806,2.16967 -0.3939,7.99688 3.3642,5.82714 3.75799,-2.16964 0.39393,-7.99688 -3.3642,-5.82714 m 10,0 c -3.75804,2.16967 -0.39393,7.99688 3.3642,5.82714 3.75799,-2.16964 0.39393,-7.99688 -3.3642,-5.82714 m 10,0 c -3.75804,2.16967 -0.39393,7.99688 3.3642,5.82714 3.75798,-2.16964 0.39395,-7.99688 -3.3642,-5.82714 m 10,0 c -3.75806,2.16967 -0.39392,7.99688 3.3642,5.82714 3.75799,-2.16964 0.39395,-7.99688 -3.3642,-5.82714 m 10,0 c -3.75806,2.16967 -0.39392,7.99688 3.3642,5.82714 3.75799,-2.16964 0.39395,-7.99688 -3.3642,-5.82714 m 20,0 c -3.75804,2.16967 -0.3939,7.99688 3.3642,5.82714 3.75806,-2.16967 0.39392,-7.99688 -3.3642,-5.82714 m 10,0 c -3.75806,2.16967 -0.39392,7.99688 3.3642,5.82714 3.75802,-2.16967 0.39395,-7.99688 -3.3642,-5.82714 m 30,0 c -3.75809,2.16967 -0.39392,7.99685 3.3642,5.82714 3.75806,-2.16967 0.39392,-7.99688 -3.3642,-5.82714 m 30,0 c -3.75809,2.16967 -0.39389,7.99685 3.3642,5.82714 3.75806,-2.16967 0.39392,-7.99688 -3.3642,-5.82714 m 40,0 c -3.75809,2.16967 -0.39389,7.99685 3.3642,5.82714 3.75802,-2.16964 0.39398,-7.99688 -3.3642,-5.82714 m 10,0 c -3.75809,2.16967 -0.39392,7.99688 3.3642,5.82714 3.75802,-2.16964 0.39398,-7.99688 -3.3642,-5.82714 m -306.31404,8.65585 c -8.280105,3.20785 -9.819191,18.73105 -4.57022,25.14892 4.099372,5.0123 14.760864,5.61417 20.5625,3.36652 8.280097,-3.20782 9.819191,-18.73105 4.57022,-25.14892 -4.09938,-5.0123 -14.760864,-5.61414 -20.5625,-3.36652 m 56.31404,1.34415 c -3.75806,2.16967 -0.39393,7.99688 3.3642,5.82714 3.75802,-2.16967 0.39394,-7.99688 -3.3642,-5.82714 m 20,0 c -3.75804,2.16967 -0.39392,7.99688 3.3642,5.82714 3.75799,-2.16964 0.39395,-7.99688 -3.3642,-5.82714 m 10,0 c -3.75806,2.16967 -0.3939,7.99688 3.3642,5.82714 3.75801,-2.16964 0.39392,-7.99688 -3.3642,-5.82714 m 50,0 c -3.75804,2.16967 -0.39392,7.99688 3.3642,5.82714 3.75801,-2.16964 0.39393,-7.99688 -3.3642,-5.82714 m 30,0 c -3.75806,2.16967 -0.3939,7.99688 3.3642,5.82714 3.75799,-2.16964 0.39395,-7.99688 -3.3642,-5.82714 m 20,0 c -3.75802,2.16967 -0.39392,7.99688 3.3642,5.82714 3.75806,-2.16967 0.39392,-7.99688 -3.3642,-5.82714 m 50,0 c -3.75812,2.1697 -0.39389,7.99685 3.3642,5.82714 3.75802,-2.16964 0.39395,-7.99688 -3.3642,-5.82714 m 10,0 c -3.75806,2.16967 -0.39392,7.99688 3.3642,5.82714 3.75802,-2.16964 0.39395,-7.99688 -3.3642,-5.82714 m 10,0 c -3.75809,2.16967 -0.39389,7.99685 3.3642,5.82714 3.75806,-2.16967 0.39392,-7.99688 -3.3642,-5.82714 m 10,0 c -3.75812,2.1697 -0.39386,7.99682 3.3642,5.82714 3.75802,-2.16964 0.39392,-7.99688 -3.3642,-5.82714 m 10,0 c -3.75809,2.16967 -0.39389,7.99685 3.3642,5.82714 3.75802,-2.16964 0.39398,-7.99688 -3.3642,-5.82714 m 10,0 c -3.75809,2.16967 -0.39392,7.99685 3.3642,5.82714 3.75802,-2.16964 0.39395,-7.99688 -3.3642,-5.82714 m 10,0 c -3.75809,2.16967 -0.39389,7.99685 3.3642,5.82714 3.75802,-2.16964 0.39395,-7.99688 -3.3642,-5.82714 m 20,0 c -3.75809,2.16967 -0.39392,7.99688 3.3642,5.82714 3.75802,-2.16964 0.39395,-7.99688 -3.3642,-5.82714 m 10,0 c -3.75812,2.1697 -0.39389,7.99685 3.3642,5.82714 3.75799,-2.16961 0.39395,-7.99688 -3.3642,-5.82714 m -270,10 c -3.75806,2.16967 -0.39393,7.99688 3.3642,5.82714 3.75802,-2.16967 0.39393,-7.99688 -3.3642,-5.82714 m 10,0 c -3.75806,2.16967 -0.39392,7.99688 3.3642,5.82714 3.75801,-2.16964 0.39393,-7.99688 -3.3642,-5.82714 m 40,0 c -3.75804,2.16967 -0.39392,7.99688 3.3642,5.82714 3.75799,-2.16964 0.39393,-7.99688 -3.3642,-5.82714 m 20,0 c -3.75806,2.16967 -0.3939,7.99688 3.3642,5.82714 3.75801,-2.16964 0.39393,-7.99688 -3.3642,-5.82714 m 20,0 c -3.75804,2.16967 -0.39393,7.99688 3.3642,5.82714 3.75799,-2.16964 0.39395,-7.99688 -3.3642,-5.82714 m 10,0 c -3.75806,2.16967 -0.3939,7.99688 3.3642,5.82714 3.75801,-2.16964 0.39393,-7.99688 -3.3642,-5.82714 m 20,0 c -3.75806,2.16967 -0.39392,7.99688 3.3642,5.82714 3.75799,-2.16964 0.39393,-7.99688 -3.3642,-5.82714 m 10,0 c -3.75804,2.16967 -0.3939,7.99685 3.3642,5.82714 3.75806,-2.16967 0.39392,-7.99688 -3.3642,-5.82714 m 10,0 c -3.75806,2.16967 -0.39392,7.99688 3.3642,5.82714 3.75802,-2.16967 0.39395,-7.99688 -3.3642,-5.82714 m 20,0 c -3.75809,2.16967 -0.39389,7.99685 3.3642,5.82714 3.75799,-2.16964 0.39395,-7.99688 -3.3642,-5.82714 m 30,0 c -3.75806,2.16967 -0.39392,7.99688 3.3642,5.82714 3.75802,-2.16964 0.39395,-7.99688 -3.3642,-5.82714 m 20,0 c -3.75812,2.1697 -0.39386,7.99682 3.3642,5.82714 3.75802,-2.16964 0.39392,-7.99688 -3.3642,-5.82714 m 10,0 c -3.75809,2.16967 -0.39389,7.99685 3.3642,5.82714 3.75802,-2.16964 0.39398,-7.99688 -3.3642,-5.82714 m 20,0 c -3.75809,2.16967 -0.39389,7.99685 3.3642,5.82714 3.75802,-2.16964 0.39395,-7.99688 -3.3642,-5.82714 m 20,0 c -3.75809,2.16967 -0.39392,7.99688 3.3642,5.82714 3.75802,-2.16964 0.39395,-7.99688 -3.3642,-5.82714 m -260,10 c -3.75804,2.16967 -0.39393,7.99688 3.3642,5.82714 3.75804,-2.16967 0.39393,-7.99688 -3.3642,-5.82714 m 40,0 c -3.75801,2.16964 -0.39393,7.99688 3.3642,5.82714 3.75799,-2.16964 0.39393,-7.99688 -3.3642,-5.82714 m 10,0 c -3.75802,2.16967 -0.39393,7.99688 3.3642,5.82714 3.75799,-2.16964 0.39395,-7.99688 -3.3642,-5.82714 m 10,0 c -3.75802,2.16967 -0.39393,7.99688 3.3642,5.82714 3.75798,-2.16964 0.39393,-7.99688 -3.3642,-5.82714 m 10,0 c -3.75799,2.16964 -0.39395,7.99688 3.3642,5.82714 3.75799,-2.16964 0.39393,-7.99688 -3.3642,-5.82714 m 10,0 c -3.75801,2.16964 -0.39393,7.99688 3.3642,5.82714 3.75799,-2.16964 0.39393,-7.99688 -3.3642,-5.82714 m 20,0 c -3.75799,2.16964 -0.39393,7.99688 3.3642,5.82714 3.75798,-2.16964 0.39395,-7.99688 -3.3642,-5.82714 m 10,0 c -3.75799,2.16964 -0.39395,7.99688 3.3642,5.82714 3.75798,-2.16961 0.39395,-7.99688 -3.3642,-5.82714 m 60,0 c -3.75806,2.16967 -0.39392,7.99685 3.3642,5.82714 3.75806,-2.16967 0.39392,-7.99688 -3.3642,-5.82714 m 20,0 c -3.75809,2.16967 -0.39389,7.99685 3.3642,5.82714 3.75806,-2.16967 0.39395,-7.99688 -3.3642,-5.82714 m 10,0 c -3.75809,2.16967 -0.39389,7.99685 3.3642,5.82714 3.75806,-2.16967 0.39395,-7.99688 -3.3642,-5.82714 m 50,0 c -3.75809,2.16967 -0.39392,7.99685 3.3642,5.82714 3.75802,-2.16964 0.39395,-7.99688 -3.3642,-5.82714 m 10,0 c -3.75806,2.16967 -0.39392,7.99685 3.3642,5.82714 3.75809,-2.16967 0.39395,-7.99688 -3.3642,-5.82714 m 20,0 c -3.75809,2.16967 -0.39392,7.99685 3.3642,5.82714 3.75809,-2.16967 0.39392,-7.99688 -3.3642,-5.82714 m -250,10 c -3.75802,2.16964 -0.39392,7.99688 3.3642,5.82714 3.75801,-2.16964 0.39393,-7.99688 -3.3642,-5.82714 m 30,0 c -3.75801,2.16964 -0.39392,7.99688 3.3642,5.82714 3.75804,-2.16967 0.39393,-7.99688 -3.3642,-5.82714 m 10,0 c -3.75802,2.16964 -0.39392,7.99688 3.3642,5.82714 3.75804,-2.16967 0.39393,-7.99688 -3.3642,-5.82714 m 40,0 c -3.75799,2.16964 -0.39393,7.99688 3.3642,5.82714 3.75804,-2.16967 0.39392,-7.99688 -3.3642,-5.82714 m 10,0 c -3.75801,2.16964 -0.39393,7.99688 3.3642,5.82714 3.75804,-2.16967 0.39392,-7.99688 -3.3642,-5.82714 m 10,0 c -3.75802,2.16964 -0.39393,7.99688 3.3642,5.82714 3.75806,-2.16967 0.39395,-7.99688 -3.3642,-5.82714 m 10,0 c -3.75806,2.16967 -0.39395,7.99688 3.3642,5.82714 3.75806,-2.16967 0.39392,-7.99685 -3.3642,-5.82714 m 20,0 c -3.75806,2.16967 -0.39395,7.99688 3.3642,5.82714 3.75806,-2.16967 0.39392,-7.99688 -3.3642,-5.82714 m 20,0 c -3.75806,2.16967 -0.39392,7.99685 3.3642,5.82714 3.75809,-2.16967 0.39389,-7.99685 -3.3642,-5.82714 m 10,0 c -3.75806,2.16967 -0.39392,7.99688 3.3642,5.82714 3.75806,-2.16967 0.39392,-7.99685 -3.3642,-5.82714 m 20,0 c -3.75806,2.16967 -0.39392,7.99688 3.3642,5.82714 3.75806,-2.16967 0.39389,-7.99685 -3.3642,-5.82714 m 30,0 c -3.75806,2.16967 -0.39392,7.99688 3.3642,5.82714 3.75806,-2.16967 0.39392,-7.99685 -3.3642,-5.82714 m 20,0 c -3.75802,2.16964 -0.39395,7.99688 3.3642,5.82714 3.75809,-2.16967 0.39389,-7.99685 -3.3642,-5.82714 m 20,0 c -3.75802,2.16964 -0.39395,7.99688 3.3642,5.82714 3.75812,-2.1697 0.39389,-7.99685 -3.3642,-5.82714 m -280,10 c -3.75804,2.16967 -0.39393,7.99688 3.3642,5.82714 3.75802,-2.16964 0.39392,-7.99688 -3.3642,-5.82714 m 20,0 c -3.75802,2.16964 -0.39392,7.99688 3.3642,5.82714 3.75804,-2.16967 0.39392,-7.99688 -3.3642,-5.82714 m 20,0 c -3.75801,2.16964 -0.39392,7.99688 3.3642,5.82714 3.75804,-2.16967 0.3939,-7.99688 -3.3642,-5.82714 m 10,0 c -3.75801,2.16964 -0.39393,7.99688 3.3642,5.82714 3.75802,-2.16967 0.39393,-7.99688 -3.3642,-5.82714 m 20,0 c -3.75802,2.16964 -0.39392,7.99688 3.3642,5.82714 3.75804,-2.16967 0.39393,-7.99688 -3.3642,-5.82714 m 20,0 c -3.75799,2.16964 -0.39395,7.99688 3.3642,5.82714 3.75802,-2.16967 0.39393,-7.99688 -3.3642,-5.82714 m 20,0 c -3.75799,2.16964 -0.39395,7.99688 3.3642,5.82714 3.75804,-2.16967 0.39392,-7.99688 -3.3642,-5.82714 m 30,0 c -3.75806,2.16967 -0.39395,7.99688 3.3642,5.82714 3.75806,-2.16967 0.39392,-7.99685 -3.3642,-5.82714 m 30,0 c -3.75802,2.16964 -0.39395,7.99688 3.3642,5.82714 3.75809,-2.16967 0.39389,-7.99685 -3.3642,-5.82714 m 10,0 c -3.75806,2.16967 -0.39392,7.99685 3.3642,5.82714 3.75809,-2.16967 0.39389,-7.99685 -3.3642,-5.82714 m 20,0 c -3.75806,2.16967 -0.39392,7.99688 3.3642,5.82714 3.75809,-2.16967 0.39392,-7.99685 -3.3642,-5.82714 m 40,0 c -3.75806,2.16967 -0.39395,7.99688 3.3642,5.82714 3.75806,-2.16967 0.39392,-7.99685 -3.3642,-5.82714 m 10,0 c -3.75806,2.16967 -0.39392,7.99688 3.3642,5.82714 3.75806,-2.16967 0.39392,-7.99685 -3.3642,-5.82714 m 20,0 c -3.75802,2.16964 -0.39395,7.99688 3.3642,5.82714 3.75809,-2.16967 0.39389,-7.99685 -3.3642,-5.82714 m 10,0 c -3.75802,2.16964 -0.39395,7.99688 3.3642,5.82714 3.75812,-2.1697 0.39389,-7.99685 -3.3642,-5.82714 z"
       id="path1" /><path
       id="path6"
       style="fill:#010101;fill-opacity:1;stroke-width:0.404432"
       d="m 225.97904,175.08595 -2.52022,3.24768 c -6.41284,8.26302 -6.94293,14.07572 -2.14725,23.54636 l 2.28013,4.50261 -0.95539,17.03973 c -0.38166,0.10176 -1.63217,-1.24929 -5.35844,-5.60889 -6.48954,-7.59259 -10.92972,-13.08622 -10.57681,-13.08622 0.14177,0 2.6287,2.22423 5.52601,4.94269 l 5.26746,4.94269 0.13558,-1.56258 c 0.36069,-4.16589 -1.97414,-9.67084 -5.74132,-13.5362 -3.63203,-3.7267 -8.7855,-6.07274 -15.12491,-6.88544 l -2.26707,-0.29054 0.26125,2.20041 c 1.0283,8.66916 3.04189,13.52683 7.32778,17.67531 2.99014,2.89427 6.60645,4.9431 9.698,5.49493 1.81416,0.3238 1.99142,0.49457 6.2841,6.04987 2.40208,3.10862 4.20802,6.09537 4.20802,6.09537 l -0.977,17.18928 c 0,0 -14.81964,-10.13152 -20.17391,-15.07491 -2.14806,-1.98324 -1.08896,-1.41001 7.25705,3.92785 3.86544,2.47222 7.12863,4.3919 7.25121,4.26612 0.53465,-0.54858 -0.80819,-5.95303 -2.15582,-8.67729 -3.71044,-7.50073 -10.89711,-11.54652 -21.76306,-12.252 l -4.47243,-0.29054 0.28919,1.97924 c 0.80822,5.53015 3.80251,12.23424 7.0021,15.67625 3.7483,4.03231 8.99698,6.76939 14.0362,7.31967 l 2.25401,0.24594 5.04764,5.19043 5.02197,5.16476 -1.14322,20.39552 11.05607,-0.15765 -1.24411,-20.70588 4.56702,-4.69675 5.04764,-5.19043 2.25401,-0.24594 c 5.03922,-0.55028 10.2879,-3.28736 14.03619,-7.31967 3.19959,-3.44201 6.19388,-10.1461 7.00211,-15.67625 l 0.28918,-1.97924 -4.47243,0.29054 c -10.86594,0.70548 -18.05261,4.75127 -21.76306,12.252 -1.34762,2.72426 -2.69046,8.12871 -2.15581,8.67729 0.12257,0.12578 3.38576,-1.7939 7.2512,-4.26612 8.34602,-5.33786 9.40512,-5.91109 7.25706,-3.92785 -5.11856,4.72575 -18.54896,13.95814 -19.75139,14.78258 l -1.04818,-17.44649 c 0.42833,-0.69267 1.80531,-2.89109 3.85668,-5.54583 4.29268,-5.5553 4.46994,-5.72607 6.2841,-6.04987 3.09155,-0.55183 6.70786,-2.60066 9.698,-5.49493 4.28589,-4.14848 6.29948,-9.00615 7.32777,-17.67531 l 0.26126,-2.20041 -2.26707,0.29054 c -6.33942,0.8127 -11.49288,3.15874 -15.12491,6.88544 -3.76718,3.86536 -6.10202,9.37031 -5.74133,13.5362 l 0.13559,1.56258 5.26746,-4.94269 c 2.89731,-2.71846 5.38423,-4.94269 5.52601,-4.94269 0.3529,0 -4.08727,5.49363 -10.57681,13.08622 -2.99622,3.50546 -4.37822,5.04577 -5.00845,5.46971 l -1.04368,-17.37036 1.79862,-3.17651 c 3.54463,-6.25957 4.41051,-10.53576 3.20578,-15.82941 -0.69235,-3.04236 -3.19143,-8.62316 -4.7562,-10.6214 z" /></g></svg>
