<?xml version="1.0" encoding="UTF-8" standalone="no"?>
<!-- Created with Inkscape (http://www.inkscape.org/) -->

<svg
   version="1.1"
   id="svg1"
   width="512"
   height="512"
   viewBox="0 0 512 512"
   xmlns="http://www.w3.org/2000/svg"
   xmlns:svg="http://www.w3.org/2000/svg">
  <defs
     id="defs1" />
  <g
     id="g1">
    <g
       id="g5"
       transform="translate(39.371768,-54.370534)">
      <circle
         style="opacity:1;fill:#3f2366;fill-opacity:1;stroke:none;stroke-width:4.70983;stroke-linecap:round;stroke-linejoin:round;stroke-opacity:0.694118;paint-order:fill markers stroke"
         id="path7"
         cx="216.62823"
         cy="310.37054"
         r="256" />
      <path
         id="path6"
         style="fill:#eeedeb;stroke-width:1.75363"
         d="m 221.16729,102.76311 -10.92773,14.08203 c -27.80624,35.82869 -30.10473,61.03272 -9.31055,102.09766 l 9.88672,19.52344 -4.14258,73.88476 c -1.65491,0.44122 -7.07715,-5.41697 -23.23437,-24.32031 -28.13881,-32.92166 -47.39155,-56.74219 -45.86133,-56.74219 0.61474,0 11.39812,9.64431 23.96094,21.43164 l 22.83984,21.43164 0.58789,-6.77539 c 1.56397,-18.06344 -8.55992,-41.93304 -24.89453,-58.69336 -15.74857,-16.15908 -38.09416,-26.33157 -65.58203,-29.85546 l -9.830078,-1.25977 1.132812,9.54102 c 4.458712,37.58974 13.189679,58.65272 31.773436,76.64062 12.96534,12.54965 28.64574,21.43346 42.05078,23.82617 7.86626,1.40403 8.63485,2.14447 27.24805,26.23242 10.41549,13.47906 18.24609,26.42969 18.24609,26.42969 l -4.23632,74.5332 c 0,0 -64.25832,-43.93056 -87.47461,-65.36523 -9.31405,-8.59939 -4.72175,-6.11385 31.46679,17.03125 16.76065,10.71965 30.90993,19.0434 31.44141,18.49805 2.31825,-2.37866 -3.50431,-25.81252 -9.34766,-37.625 -16.08859,-32.52336 -47.2502,-50.06602 -94.365231,-53.125 l -19.392578,-1.25977 1.253906,8.58203 c 3.504482,23.97887 16.487816,53.04801 30.361328,67.97266 16.252715,17.48421 39.011135,29.35225 60.861325,31.73828 l 9.77344,1.06641 21.88672,22.50586 21.77539,22.39453 -4.95703,88.43554 47.93945,-0.68359 -5.39453,-89.78125 19.80274,-20.36523 21.88671,-22.50586 9.77344,-1.06641 c 21.8502,-2.38603 44.60862,-14.25407 60.86133,-31.73828 13.87352,-14.92465 26.85684,-43.99379 30.36133,-67.97266 l 1.2539,-8.58203 -19.39257,1.25977 c -47.11504,3.05898 -78.27664,20.60164 -94.36524,53.125 -5.84334,11.81248 -11.6659,35.24634 -9.34765,37.625 0.53147,0.54535 14.68076,-7.7784 31.4414,-18.49805 36.18855,-23.1451 40.78085,-25.63064 31.4668,-17.03125 -22.19419,20.49099 -80.42878,60.5229 -85.64258,64.09766 l -4.54492,-75.64844 c 1.85726,-3.00343 7.82789,-12.53584 16.72265,-24.04688 18.61321,-24.08795 19.3818,-24.82839 27.24805,-26.23242 13.40505,-2.39271 29.08545,-11.27652 42.05078,-23.82617 18.58375,-17.9879 27.31473,-39.05088 31.77344,-76.64062 l 1.13281,-9.54102 -9.83008,1.25977 c -27.48787,3.52389 -49.83345,13.69638 -65.58203,29.85546 -16.3346,16.76032 -26.4585,40.62992 -24.89453,58.69336 l 0.58789,6.77539 22.83985,-21.43164 c 12.56281,-11.78733 23.34619,-21.43164 23.96093,-21.43164 1.53022,0 -17.72251,23.82053 -45.86132,56.74219 -12.99168,15.19977 -18.98409,21.8786 -21.7168,23.7168 l -4.52539,-75.31836 7.79883,-13.77344 c 15.36962,-27.14163 19.12412,-45.68333 13.90039,-68.63672 -3.00208,-13.19178 -13.83813,-37.3903 -20.62305,-46.05469 z" />
    </g>
  </g>
</svg>
